<?xml version="1.0" encoding="utf-8"?>
<!-- Generator: Adobe Illustrator 24.3.0, SVG Export Plug-In . SVG Version: 6.00 Build 0)  -->
<svg version="1.1" id="Layer_1" xmlns="http://www.w3.org/2000/svg" xmlns:xlink="http://www.w3.org/1999/xlink" x="0px" y="0px"
	 viewBox="0 0 512 512" style="enable-background:new 0 0 512 512;" xml:space="preserve">
<style type="text/css">
	.st0{display:none;fill:url(#SVGID_1_);}
	.st1{display:none;fill:url(#SVGID_2_);}
	.st2{fill:url(#SVGID_3_);}
	.st3{fill:url(#SVGID_4_);}
	.st4{fill:url(#SVGID_5_);}
	.st5{fill:url(#SVGID_6_);}
	.st6{fill:url(#SVGID_7_);}
	.st7{fill:url(#SVGID_8_);}
	.st8{fill:url(#SVGID_9_);}
	.st9{fill:url(#SVGID_10_);}
	.st10{fill:#401C3F;}
	.st11{fill:url(#SVGID_11_);}
	.st12{fill:url(#SVGID_12_);}
	.st13{fill:#1E121B;}
	.st14{fill:url(#SVGID_13_);}
	.st15{fill:url(#SVGID_14_);}
	.st16{fill:#4D204C;}
	.st17{fill:#CC8168;}
	.st18{fill:url(#SVGID_15_);}
	.st19{fill:#FFECE3;}
	.st20{fill:#FFD3B9;}
	.st21{fill:url(#SVGID_16_);}
	.st22{opacity:0.75;fill:#FFFFFF;}
	.st23{fill:url(#SVGID_17_);}
	.st24{opacity:0.5;fill:#FFFFFF;}
	.st25{fill:#E69F8A;}
	.st26{fill:url(#SVGID_18_);}
	.st27{fill:url(#SVGID_19_);}
	.st28{fill:#924C36;}
	.st29{fill:#773C32;}
	.st30{fill:#452009;}
	.st31{fill:#E39090;}
	.st32{fill:#AF664C;}
	.st33{fill:url(#SVGID_20_);}
	.st34{fill:url(#SVGID_21_);}
	.st35{fill:#853D11;}
	.st36{fill:#FF7F8F;}
	.st37{fill:url(#SVGID_22_);}
	.st38{fill:url(#SVGID_23_);}
	.st39{fill:url(#SVGID_24_);}
	.st40{fill:url(#SVGID_25_);}
	.st41{fill:url(#SVGID_26_);}
	.st42{fill:url(#SVGID_27_);}
	.st43{fill:url(#SVGID_28_);}
	.st44{fill:url(#SVGID_29_);}
	.st45{fill:url(#SVGID_30_);}
	.st46{fill:url(#SVGID_31_);}
	.st47{fill:url(#SVGID_32_);}
	.st48{fill:url(#SVGID_33_);}
	.st49{fill:url(#SVGID_34_);}
	.st50{fill:url(#SVGID_35_);}
	.st51{fill:url(#SVGID_36_);}
	.st52{clip-path:url(#SVGID_38_);}
	.st53{fill:url(#SVGID_39_);}
	.st54{fill:url(#SVGID_40_);}
	.st55{opacity:0.25;}
	.st56{fill:#08AFF7;}
	.st57{fill:#FFFFFF;}
	.st58{fill:#D9B28D;}
	.st59{fill:#D8B386;}
	.st60{fill:url(#SVGID_41_);}
	.st61{fill:#2B1628;}
	.st62{fill:url(#SVGID_42_);}
	.st63{fill:url(#SVGID_43_);}
	.st64{fill:url(#SVGID_44_);}
	.st65{fill:#9E5545;}
	.st66{fill:url(#SVGID_45_);}
	.st67{fill:url(#SVGID_46_);}
	.st68{fill:url(#SVGID_47_);}
	.st69{fill:url(#SVGID_48_);}
	.st70{fill:url(#SVGID_49_);}
	.st71{fill:url(#SVGID_50_);}
	.st72{fill:url(#SVGID_51_);}
	.st73{fill:none;stroke:#2B1628;stroke-miterlimit:10;}
</style>
<g id="Color">
	<g>
		<g>
			
				<linearGradient id="SVGID_1_" gradientUnits="userSpaceOnUse" x1="380.5091" y1="381.3077" x2="262.7994" y2="125.5531" gradientTransform="matrix(1 0 0 1 -90.6996 0)">
				<stop  offset="0" style="stop-color:#FF5673"/>
				<stop  offset="1" style="stop-color:#FF7C8B"/>
			</linearGradient>
			<path class="st0" d="M419.54,305.12c-18.64-18.79-46.47-26.49-56.95-50.7c40.02-88.06,7.63-165.84-93.83-168.07
				c-40.03-0.88-82.58,8.69-100.2,36.03c-45.18,34.11-46.72,193.59-64.61,269.86C199.37,291.06,328.04,441.28,419.54,305.12z"/>
			
				<linearGradient id="SVGID_2_" gradientUnits="userSpaceOnUse" x1="195.3272" y1="233.4012" x2="513.7926" y2="233.4012" gradientTransform="matrix(1 0 0 1 -98.5738 0)">
				<stop  offset="0" style="stop-color:#FF7C8B"/>
				<stop  offset="1" style="stop-color:#FF9DA9"/>
			</linearGradient>
			<path class="st1" d="M415.22,304.52c-24.99-25.17-56-22.9-66.22-59.14c24.84-45.8,24.15-82.63-11.05-116.34
				c-25.5-78-162.08-59.75-194.64-9.24c-45.18,34.11,1.23,165.85,1.31,167.05c-29.15,10.72-63.65,57.53-39.99,103.79
				c11.61-24.34,29.74-40.3,51.7-50.78c-3.88,6.69-10.41,17.71-13.02,34.88c53.38-7.94,56.28-48.86,70.39-50.83
				c18.02-2.53,18.29-11.31,32.23,1.24c66.01,59.44,93-7.28,138.78-12.62c-28-1.97-36.8-1.97-40.76-3.9
				C370.04,307.25,380.69,298.15,415.22,304.52z"/>
			<linearGradient id="SVGID_3_" gradientUnits="userSpaceOnUse" x1="384.0323" y1="202.6721" x2="313.6021" y2="49.6443">
				<stop  offset="0" style="stop-color:#FF5673"/>
				<stop  offset="1" style="stop-color:#FF7C8B"/>
			</linearGradient>
			<path class="st2" d="M267.5,115.95c-20.38-39.82,9.34-71.38,42.93-64.27c-5.52,6.67-3.34,19.56-6.65,23.11
				c4.94,8.65,52.4-55.33,102.02,8.52c-38.11-14.52-23.78,15.65-54.48,24.38c19.9,1.75,69.15,26.47,61.15,86.79
				C388.01,190.8,293.65,153.99,267.5,115.95z"/>
			
				<linearGradient id="SVGID_4_" gradientUnits="userSpaceOnUse" x1="108.5216" y1="155.4712" x2="232.4414" y2="155.4712" gradientTransform="matrix(-1 0 0 1 485.0363 0)">
				<stop  offset="0" style="stop-color:#E63D5A"/>
				<stop  offset="1" style="stop-color:#E66372"/>
			</linearGradient>
			<path class="st3" d="M364.28,204.46c44.11-55.88-39.8-123.1-111.68-88.51C285.78,137.19,353.27,137.88,364.28,204.46z"/>
			
				<radialGradient id="SVGID_5_" cx="126.1515" cy="43.6008" r="92.9315" gradientTransform="matrix(-1 0 0 1 485.0363 0)" gradientUnits="userSpaceOnUse">
				<stop  offset="0" style="stop-color:#FFB9C0"/>
				<stop  offset="0.3247" style="stop-color:#FF8C9E"/>
				<stop  offset="0.9399" style="stop-color:#FF5673"/>
			</radialGradient>
			<path class="st4" d="M364.28,46.09c-49.66-7.05-72.82,14.56-65.85,61.6C313.4,66.41,328.04,49.54,364.28,46.09z"/>
			
				<linearGradient id="SVGID_6_" gradientUnits="userSpaceOnUse" x1="295.4177" y1="310.9471" x2="198.2857" y2="99.9028" gradientTransform="matrix(-1 0 0 1 485.0363 0)">
				<stop  offset="0" style="stop-color:#FFB4B2"/>
				<stop  offset="1" style="stop-color:#FF9DA9"/>
			</linearGradient>
			<path class="st5" d="M120.05,213.5c0,68.38,56.23,115.81,127.61,115.81s108.65-81.11,108.65-149.49s-35.65-90.14-107.03-90.14
				S120.05,145.12,120.05,213.5z"/>
			
				<linearGradient id="SVGID_7_" gradientUnits="userSpaceOnUse" x1="302.4748" y1="310.7556" x2="201.818" y2="92.0527" gradientTransform="matrix(-1 0 0 1 485.0363 0)">
				<stop  offset="0" style="stop-color:#B72436"/>
				<stop  offset="0.3743" style="stop-color:#FF5673"/>
				<stop  offset="1" style="stop-color:#FF7C8B"/>
			</linearGradient>
			<path class="st6" d="M115.05,214.5c0,68.38,56.23,115.81,127.61,115.81s108.65-81.11,108.65-149.49s-38.62-106-109.98-104.52
				C152.79,78.13,115.05,146.12,115.05,214.5z"/>
			
				<linearGradient id="SVGID_8_" gradientUnits="userSpaceOnUse" x1="250.7447" y1="125.6139" x2="231.0946" y2="82.9189" gradientTransform="matrix(-1 0 0 1 485.0363 0)">
				<stop  offset="0" style="stop-color:#E63D5A"/>
				<stop  offset="1" style="stop-color:#E66372"/>
			</linearGradient>
			<path class="st7" d="M259.18,82.8c-31.37,7.89,4.87,39.45-9.68,51.18C254.9,109.45,197.95,81.62,259.18,82.8z"/>
		</g>
		<g>
			<g>
				
					<linearGradient id="SVGID_9_" gradientUnits="userSpaceOnUse" x1="306.6331" y1="346.0294" x2="335.3133" y2="418.0632" gradientTransform="matrix(1 0 0 1 -98.5738 0)">
					<stop  offset="0" style="stop-color:#6F2A60"/>
					<stop  offset="1" style="stop-color:#281529"/>
				</linearGradient>
				<path class="st8" d="M289,381c-26.08-24.83-83.34-44.56-107.9-23.67c-3.05,2.59-5.36,6.04-7.06,10.09
					c-13.17,25.03-11.06,89.22,28.06,112.09c18.16,10.62,29-5.22,25-19.84c-0.33-1.21-0.78-2.91-1.33-5.01
					c30.84,1.12,68.21,5,81.62,16.7C314.09,439.38,312.36,403.23,289,381z"/>
				
					<linearGradient id="SVGID_10_" gradientUnits="userSpaceOnUse" x1="271.4475" y1="412.0829" x2="413.1876" y2="412.0829" gradientTransform="matrix(1 0 0 1 -98.5738 0)">
					<stop  offset="0" style="stop-color:#1E121B"/>
					<stop  offset="1" style="stop-color:#101017"/>
				</linearGradient>
				<path class="st9" d="M293.96,380.8c24.56,20.89,23.13,60.58,16.44,92.58c-24.32-21.22-127.48-16.71-127.48-16.71
					s-23.37-76.44,1.19-97.33C208.67,338.44,269.4,359.9,293.96,380.8z"/>
				<path class="st10" d="M289,381c28.62,21.8,23.22,73.32,18.69,90.06c-34.17-18.83-125.03-14.4-125.03-14.4
					s-22.77-76.44,1.16-97.33C207.74,338.44,263.73,361.75,289,381z"/>
				
					<linearGradient id="SVGID_11_" gradientUnits="userSpaceOnUse" x1="297.1099" y1="472.5197" x2="318.6099" y2="362.5197" gradientTransform="matrix(1 0 0 1 -90.6996 0)">
					<stop  offset="0" style="stop-color:#1E121B"/>
					<stop  offset="1" style="stop-color:#1E121B;stop-opacity:0"/>
				</linearGradient>
				<path class="st11" d="M205.34,383.31c-6.82,17.19-20.75,53.88-20.94,73.27c6.06-0.24,27.27-0.89,51.2,0.38
					C224.78,427.59,211.77,393.8,205.34,383.31z"/>
				
					<linearGradient id="SVGID_12_" gradientUnits="userSpaceOnUse" x1="411.39" y1="457.5721" x2="385.5952" y2="396.9844" gradientTransform="matrix(1 0 0 1 -98.5738 0)">
					<stop  offset="0" style="stop-color:#1E121B"/>
					<stop  offset="1" style="stop-color:#1E121B;stop-opacity:0"/>
				</linearGradient>
				<path class="st12" d="M284.57,396.33c4,8,30.78,48.38,23.12,74.73C312.89,464.93,316.07,398.83,284.57,396.33z"/>
				<path class="st13" d="M250.75,368.23c13.2,10.15,8.26-4.71,40.71,16.51c-30.15,26-70.09-20.86-81.36-31.81
					C223.64,353.86,239.07,359.25,250.75,368.23z"/>
				
					<linearGradient id="SVGID_13_" gradientUnits="userSpaceOnUse" x1="349.3573" y1="379.4168" x2="349.3573" y2="316.2734" gradientTransform="matrix(1 0 0 1 -98.5738 0)">
					<stop  offset="0" style="stop-color:#CC8570"/>
					<stop  offset="1" style="stop-color:#914425"/>
				</linearGradient>
				<path class="st14" d="M272.57,320c-1.19,16.61-13.56,43.53,18.9,64.75c-37.45,16.23-63.74-21.61-81.36-31.81
					c13.53,0.92,25.04-0.42,22.66-24.36C230.66,307.43,273.82,302.52,272.57,320z"/>
			</g>
			<g>
				
					<linearGradient id="SVGID_14_" gradientUnits="userSpaceOnUse" x1="273.7162" y1="373.458" x2="318.6938" y2="493.0493" gradientTransform="matrix(1 0 0 1 -98.5738 0)">
					<stop  offset="0" style="stop-color:#2B1628"/>
					<stop  offset="1" style="stop-color:#101017"/>
				</linearGradient>
				<path class="st15" d="M190.11,359.36c-25.55-3.81-36,92.92,14,122.16c18.16,10.62,29-5.22,25-19.84S204.11,361.45,190.11,359.36
					z"/>
				<path class="st16" d="M188.81,358.71c-21.98,0.08-28.25,82.36,15.68,119.32c14.59,12.27,22.44-4.95,18.83-18.13
					c-2.27-8.29-7.41-46.08-16.74-73.11C201.07,370.84,194.92,358.69,188.81,358.71z"/>
				<path class="st17" d="M186.57,360.83c-18.64,11.85-16.79,49.4,0.33,55.39C211.67,395.86,205.47,365.17,186.57,360.83z"/>
				
					<radialGradient id="SVGID_15_" cx="282.0311" cy="364.1299" r="52.9429" gradientTransform="matrix(1 0 0 1 -98.5738 0)" gradientUnits="userSpaceOnUse">
					<stop  offset="0" style="stop-color:#E6B89A"/>
					<stop  offset="1" style="stop-color:#CC8168"/>
				</radialGradient>
				<path class="st18" d="M186.57,360.83c-19.5,10-17.5,49.5,0.33,55.39C205.07,401.83,202.28,371.09,186.57,360.83z"/>
			</g>
		</g>
	</g>
	<g>
		<g>
			<g>
				<path class="st19" d="M307.54,301.93c-18.48,27.71-77.95,45.05-90.14,43.42c-13.89-1.85-39.02-10.4-59.33-27.49
					c-33.08-27.82-23.63-56.33-14.5-93.2c3.51-14.19,0.64-28.5,4.67-46.13c6.5-28.39,50.99-48.05,93.87-46.43
					c3.46,0.13,7.53,10.96,10.24,13.48c5.45-0.46,12.82-0.99,16.95,0c17.33,4.13,31.63,0.18,40.05,15.56
					c5.12,9.35,7.96,25.14,9.1,42.92c-3.63,4.02-11.11,10.9-11.13,17.77c-0.02,7.55,7.25,19.75,10.95,25.01
					C316.64,272.05,312.56,294.39,307.54,301.93z"/>
				<path class="st20" d="M307.54,301.93c-18.25,27.23-76.87,41.28-88.9,39.69c-13.72-1.82-38.55-10.22-58.61-27.01
					c-32.67-27.34-23.34-55.34-14.32-91.57c3.47-13.94,0.63-28,4.62-45.33c6.42-27.89,50.37-47.21,92.72-45.62
					c3.42,0.13,7.44,10.77,10.11,13.24c5.39-0.45,12.66-0.97,16.75,0c17.12,4.06,31.24,0.17,39.56,15.29
					c5.05,9.18,7.86,24.7,8.99,42.17c-3.58,3.95-10.97,10.71-10.99,17.46c-0.02,7.42,7.16,19.4,10.82,24.57
					C316.66,269.59,312.5,294.52,307.54,301.93z"/>
				
					<radialGradient id="SVGID_16_" cx="405.2317" cy="313.6014" r="43.7562" gradientTransform="matrix(0.887 -0.4617 0.4169 0.8009 -211.537 191.0211)" gradientUnits="userSpaceOnUse">
					<stop  offset="0" style="stop-color:#F39E95"/>
					<stop  offset="1" style="stop-color:#F39E95;stop-opacity:0"/>
				</radialGradient>
				<path class="st21" d="M318.24,234.48c10.24,19.67,1.02,44.74-20.59,55.99c-21.61,11.25-47.43,4.42-57.67-15.25
					s-1.02-44.74,20.59-55.99C282.18,207.98,308,214.81,318.24,234.48z"/>
				
					<ellipse transform="matrix(0.7686 -0.6397 0.6397 0.7686 -95.1299 242.052)" class="st22" cx="287.02" cy="252.52" rx="3.74" ry="2.14"/>
				
					<radialGradient id="SVGID_17_" cx="253.3528" cy="270.4819" r="21.4949" gradientTransform="matrix(0.8796 -0.4757 0.7715 1.4265 -276.7365 5.1688)" gradientUnits="userSpaceOnUse">
					<stop  offset="0" style="stop-color:#F39E95"/>
					<stop  offset="1" style="stop-color:#F39E95;stop-opacity:0"/>
				</radialGradient>
				<path class="st23" d="M140.15,238.58c-0.02,0.01-0.04,0.02-0.06,0.03c-3.75,15.39-6.48,29.35-4.49,42.52
					c8.48,16.29,23.72,25.17,34.62,19.92c11.24-5.41,13.61-23.78,5.31-41.03S151.38,233.17,140.15,238.58z"/>
				
					<ellipse transform="matrix(0.6565 -0.7543 0.7543 0.6565 -143.534 216.9095)" class="st24" cx="166.39" cy="266.05" rx="2.14" ry="3.74"/>
			</g>
			<g>
				<path class="st20" d="M355.5,230.98c1.24,17.25-12.25,45.51-27.45,38.25c-3.22-1.54-7.05-6.75-6.47-13.65
					c1-12-0.75-19-0.11-30.15c0.53-9.16,3.4-16.79,6.36-19.62C339.06,195.01,353.96,209.51,355.5,230.98z"/>
				<circle class="st16" cx="334.45" cy="262.82" r="3.97"/>
				<circle class="st16" cx="342.04" cy="255.83" r="3.31"/>
				<g>
					<path class="st25" d="M335.42,209.43c-2.01,7.11-5.62,15.93-6.63,20.11s8.81,3.16,1.27,17.72c0.47,6.53,3.69,12.77,14.2-1.47
						C357.78,227.47,346.13,206.44,335.42,209.43z"/>
					<g>
						
							<linearGradient id="SVGID_18_" gradientUnits="userSpaceOnUse" x1="472.381" y1="238.3658" x2="484.4212" y2="244.7204" gradientTransform="matrix(0.9963 -0.0859 0.0859 0.9963 -160.7645 23.2947)">
							<stop  offset="0" style="stop-color:#924C36"/>
							<stop  offset="1" style="stop-color:#924C36;stop-opacity:0"/>
						</linearGradient>
						<path class="st26" d="M334.45,215.35c7.12,2.06,9.57,8.45,7.29,12.36c-2.28,3.9-11.79,0.84-11.25-5
							C331.04,216.86,332.49,214.78,334.45,215.35z"/>
						
							<linearGradient id="SVGID_19_" gradientUnits="userSpaceOnUse" x1="480.1016" y1="249.6895" x2="489.3013" y2="254.5449" gradientTransform="matrix(0.9963 -0.0859 0.0859 0.9963 -160.7645 23.2947)">
							<stop  offset="0" style="stop-color:#924C36"/>
							<stop  offset="1" style="stop-color:#924C36;stop-opacity:0"/>
						</linearGradient>
						<path class="st27" d="M348.14,225.27c0.16,4.17-3.62,11.58-12.38,13.33C341.32,242.54,352.1,239.92,348.14,225.27z"/>
					</g>
					<g>
						<path class="st28" d="M328.79,229.54c1.97-8.91,2.18-16.66,9.15-23.65C335.82,211.61,331.03,224.38,328.79,229.54z"/>
						<path class="st28" d="M334.45,210.56c2.53-4.28,12.51-2.12,15.47,12.52C347.24,217.36,342.99,209.67,334.45,210.56z"/>
					</g>
				</g>
			</g>
			<g>
				<g>
					<path class="st25" d="M213.72,319.95c6.44,9.44,17.01,5.48,18.81-4.51C227.58,320.59,217.72,321.51,213.72,319.95z"/>
					<g>
						<path class="st25" d="M245.63,297.43c-1.12-8.3,3.68-9.94,7.91-7.68c4.23,2.25,3.7,9.4,0,8.4
							C249.85,297.15,245.63,297.43,245.63,297.43z"/>
						<path class="st29" d="M221.11,310.42c-8.4,0.72-17.17-0.1-21.06-3.32l2.23-2.7c2.97,2.46,12.47,6.19,23.73,4.12
							c9.98-1.84,17.97-8.12,20.78-13.09l3.05,1.72c-4.55,8.05-16.07,11.25-22.53,12.44C225.33,309.96,223.23,310.24,221.11,310.42z
							"/>
						<path class="st30" d="M241.87,304.22c4.17-5.52,5.35-9.75,1.12-10.93C253.78,289.56,255.8,294.77,241.87,304.22z"/>
						<path class="st30" d="M209.34,308.34c-5.84-1.2-8.56-5.01-6.82-8.2C195.92,304.14,198.58,310.87,209.34,308.34z"/>
						<path class="st31" d="M203.54,303.05c19.08-6.72,29.72,4.76,42.09-6.72c1.41,4.46-20.68,20.14-42.38,9.11
							C201.12,304.35,202.66,303.35,203.54,303.05z"/>
						<path class="st20" d="M208.24,300.14c0,0,5.57,6.23,8.34,5.74c2.05-0.36,4.57-5.74,4.57-5.74l-8.54-4.89L208.24,300.14z"/>
					</g>
				</g>
				<circle class="st32" cx="189.48" cy="302.05" r="1.91"/>
				<path class="st25" d="M198.81,272.31c3.7,3.28,9.15,6.46,15.2,6.78C207.6,286.17,194.47,284.06,198.81,272.31z"/>
				<path class="st29" d="M198.28,274.81c-3.5,1.69-1.74,13.01,10.44,7.66C203.93,282.75,200.34,281.34,198.28,274.81z"/>
				<g>
					<linearGradient id="SVGID_20_" gradientUnits="userSpaceOnUse" x1="218.4985" y1="183.4213" x2="266.809" y2="183.4213">
						<stop  offset="0" style="stop-color:#6F2A60"/>
						<stop  offset="1" style="stop-color:#281529"/>
					</linearGradient>
					<path class="st33" d="M224.32,182.66c8.1-3.86,21.03-10.02,42.49-5.54c-24,8.92-43.08,13.73-48.31,14.18
						C220.08,187.93,222.12,184.18,224.32,182.66z"/>
				</g>
				<g>
					
						<linearGradient id="SVGID_21_" gradientUnits="userSpaceOnUse" x1="252.1191" y1="214.1581" x2="264.8495" y2="251.1172" gradientTransform="matrix(1 0 0 1 -98.5738 0)">
						<stop  offset="0" style="stop-color:#FF7C8B"/>
						<stop  offset="1" style="stop-color:#FF7C8B;stop-opacity:0"/>
					</linearGradient>
					<path class="st34" d="M138.46,242.3c-4.24-42.02,45.74-25.96,50.26,3.44c-9.02-24.49-31.19-22.87-40.5-2.86
						C144.82,243.72,141.63,243.9,138.46,242.3z"/>
					<g>
						<path class="st25" d="M181.91,221.24c-2.89-5.1-4.49-8.3-13.23-7.02C171.53,217.49,179.65,218.71,181.91,221.24z"/>
					</g>
					<path class="st35" d="M178.42,196.68c-5.74-1.85-14.9-4.79-25.98,5.21c16.3,2.92,28.61,2.93,31.75,2.05
						C182.33,200.94,180.11,197.66,178.42,196.68z"/>
				</g>
			</g>
		</g>
		<g>
			<g>
				<path class="st36" d="M252.34,145.58c2.2-8.06,11.71-15.12,15.01-15.4c2.6-0.22,30.12,9.29,27.59,14.44
					C282.08,136.59,259.21,142.32,252.34,145.58z"/>
				
					<linearGradient id="SVGID_22_" gradientUnits="userSpaceOnUse" x1="71.529" y1="322.2905" x2="64.2157" y2="213.809" gradientTransform="matrix(-1 0 0 1 386.9132 0)">
					<stop  offset="0" style="stop-color:#FF5673"/>
					<stop  offset="1" style="stop-color:#FF9DA9"/>
				</linearGradient>
				<path class="st37" d="M327.14,194.48c-14.28,12.64-36.37,41.99-22.36,75c14.02,33.01,13.06,45.19-9.68,62.85
					c26.78-3.8,59.22-40.26,34.26-82.1C324.99,242.91,313.67,220.53,327.14,194.48z"/>
				<g>
					
						<linearGradient id="SVGID_23_" gradientUnits="userSpaceOnUse" x1="391.6721" y1="128.3198" x2="412.9886" y2="212.7332" gradientTransform="matrix(1 0 0 1 -98.5738 0)">
						<stop  offset="0" style="stop-color:#FFB4BB"/>
						<stop  offset="1" style="stop-color:#FFB4BB;stop-opacity:0"/>
					</linearGradient>
					<path class="st38" d="M276.37,129.65c9.2,1.48,15.05,2.41,21.89-0.24c16.75,6.68,28.58,30.66,9.34,79.38
						C304.18,160.88,291.77,138.21,276.37,129.65z"/>
					
						<linearGradient id="SVGID_24_" gradientUnits="userSpaceOnUse" x1="391.4397" y1="129.42" x2="405.3696" y2="184.5821" gradientTransform="matrix(1 0 0 1 -98.5738 0)">
						<stop  offset="0" style="stop-color:#FFC1BF;stop-opacity:0"/>
						<stop  offset="0.5108" style="stop-color:#FFC1BF"/>
						<stop  offset="1" style="stop-color:#FFC1BF;stop-opacity:0"/>
					</linearGradient>
					<path class="st39" d="M281.08,130.51c2.57,0,11.98-0.86,13.69-0.86c7.7,7.27,20.53,17.54,18.4,49.63
						c-2.99-1.28-7.7,0-9.84,0.43C302.89,156.18,293.48,138.64,281.08,130.51z"/>
				</g>
			</g>
			<g>
				<path class="st36" d="M244.4,112.57c12.13,11.58,6.89,29.39,7.94,33.01c-27.16-42.54-63.21-6.21-66.47-9.64
					C182.6,132.51,218,88.05,244.4,112.57z"/>
				<linearGradient id="SVGID_25_" gradientUnits="userSpaceOnUse" x1="112.3499" y1="171.735" x2="401.0165" y2="365.0683">
					<stop  offset="0" style="stop-color:#FFB4B2"/>
					<stop  offset="1" style="stop-color:#FF9DA9"/>
				</linearGradient>
				<path class="st40" d="M239.4,109.57c-69.1-7.34-29.5,87.27-81.27,111.18c-15.47,7.15-23.04,14.86-24.81,21.63
					c-22.98,42.75-12.72,60.53,20.45,84.59c-73.54-5.88-101.1-57.61-81.43-100.52c9.35-20.39,19.55-23.37,17.33-39.99
					c-5.81-43.5,19.41-80.87,56.22-92.27C184.74,82.17,206.84,86.54,239.4,109.57z"/>
				
					<radialGradient id="SVGID_26_" cx="286.2522" cy="99.4237" r="231.9855" gradientTransform="matrix(1 0 0 1 -90.6996 0)" gradientUnits="userSpaceOnUse">
					<stop  offset="0" style="stop-color:#FFB9C0"/>
					<stop  offset="0.3247" style="stop-color:#FF8C9E"/>
					<stop  offset="0.9399" style="stop-color:#FF5673"/>
				</radialGradient>
				<path class="st41" d="M244.4,112.57c-69.1-7.34-29.5,87.27-81.27,111.18c-15.47,7.15-23.04,14.86-24.81,21.63
					c-22.98,42.75-12.72,60.53,20.45,84.59c-73.54-5.88-101.1-57.61-81.43-100.52c9.35-20.39,19.55-23.37,17.33-39.99
					c-5.81-43.5,19.41-80.87,56.22-92.27C189.74,85.17,211.84,89.54,244.4,112.57z"/>
				<g>
					
						<linearGradient id="SVGID_27_" gradientUnits="userSpaceOnUse" x1="270.1599" y1="108.1928" x2="212.5373" y2="254.0499" gradientTransform="matrix(1 0 0 1 -98.5738 0)">
						<stop  offset="0" style="stop-color:#FFB4BB"/>
						<stop  offset="1" style="stop-color:#FFB4BB;stop-opacity:0"/>
					</linearGradient>
					<path class="st42" d="M153,113.92c0.99,11.42,22.3,4.91,66.13-6.23c-33.03,13.73-16.24,63.37-36.75,93.52
						c-20.56,30.21-36.69,12.95-67.11,52.74C94.01,217.71,80.68,131.59,153,113.92z"/>
					<g>
						
							<linearGradient id="SVGID_28_" gradientUnits="userSpaceOnUse" x1="194.412" y1="185.4006" x2="250.2389" y2="108.971" gradientTransform="matrix(0.9959 -0.0902 0.0902 0.9959 -109.5189 23.3231)">
							<stop  offset="0" style="stop-color:#FFC1BF;stop-opacity:0"/>
							<stop  offset="0.5108" style="stop-color:#FFC1BF"/>
							<stop  offset="1" style="stop-color:#FFC1BF;stop-opacity:0"/>
						</linearGradient>
						<path class="st43" d="M149.26,109.45c3.02,11.57,19.17,8.46,19.17,8.46c-28.44,16.4-47.31,34.98-53.76,89.07
							c-5.96-2.33-8.08-6.74-9.95-8.29C91.54,140.29,119.18,113.69,149.26,109.45z"/>
						
							<linearGradient id="SVGID_29_" gradientUnits="userSpaceOnUse" x1="225.4381" y1="201.7184" x2="273.6429" y2="117.4926" gradientTransform="matrix(0.9959 -0.0902 0.0902 0.9959 -109.5189 23.3231)">
							<stop  offset="0" style="stop-color:#FFC1BF;stop-opacity:0"/>
							<stop  offset="0.5108" style="stop-color:#FFC1BF"/>
							<stop  offset="1" style="stop-color:#FFC1BF;stop-opacity:0"/>
						</linearGradient>
						<path class="st44" d="M174.58,117.96c-5.3,6.89-47.24,30.35-48.97,84.42c8.27,4.19,20.51,3.08,22.02,3.43
							c8.24-12.59,39.98-85.58,41.32-87.18C182.18,120.23,177.74,120.14,174.58,117.96z"/>
						
							<linearGradient id="SVGID_30_" gradientUnits="userSpaceOnUse" x1="255.4377" y1="203.942" x2="301.9385" y2="125.2924" gradientTransform="matrix(0.9959 -0.0902 0.0902 0.9959 -109.5189 23.3231)">
							<stop  offset="0" style="stop-color:#FFC1BF;stop-opacity:0"/>
							<stop  offset="0.5108" style="stop-color:#FFC1BF"/>
							<stop  offset="1" style="stop-color:#FFC1BF;stop-opacity:0"/>
						</linearGradient>
						<path class="st45" d="M205.18,117.03c-29.67,24.78-2.46,74.5-42.61,90.39c-2.13-1.78-3.2-2.67-5.78-3.92
							c8.46-10.14,33.39-75.91,35.44-87.14C195.62,115.56,200.16,116.01,205.18,117.03z"/>
					</g>
				</g>
			</g>
			
				<linearGradient id="SVGID_31_" gradientUnits="userSpaceOnUse" x1="198.5772" y1="177.0037" x2="503.8709" y2="177.0037" gradientTransform="matrix(1 0 0 1 -96.1809 0)">
				<stop  offset="0" style="stop-color:#FF8998"/>
				<stop  offset="1" style="stop-color:#FFAAB6"/>
			</linearGradient>
			<path class="st46" d="M246.78,150.52c4.32,24.21,43.21,89.23,117.87,73c-49.66-17.35-31.49-61.17-59.12-83.55
				C277.89,117.58,248.9,129.51,246.78,150.52z"/>
			<g>
				
					<linearGradient id="SVGID_32_" gradientUnits="userSpaceOnUse" x1="378.187" y1="136.2535" x2="428.8537" y2="217.5869" gradientTransform="matrix(1 0 0 1 -96.1809 0)">
					<stop  offset="0" style="stop-color:#FFB4BB"/>
					<stop  offset="1" style="stop-color:#FFB4BB;stop-opacity:0"/>
				</linearGradient>
				<path class="st47" d="M251.15,142.27c10.5-1,44.5-9.25,52.25-27.25c41.41,32.25,23.76,70.25,51.75,105.76
					C319.15,223.51,262.39,194.94,251.15,142.27z"/>
				
					<linearGradient id="SVGID_33_" gradientUnits="userSpaceOnUse" x1="389.0909" y1="211.6763" x2="355.4537" y2="143.8923" gradientTransform="matrix(0.9901 -0.1403 0.1403 0.9901 -114.7482 39.9514)">
					<stop  offset="0" style="stop-color:#FFC1BF;stop-opacity:0"/>
					<stop  offset="0.5108" style="stop-color:#FFC1BF"/>
					<stop  offset="1" style="stop-color:#FFC1BF;stop-opacity:0"/>
				</linearGradient>
				<path class="st48" d="M253.74,136.94c6.12-0.41,10.51-1.44,14.21-2.97c2.13,4.77,12.58,39.25,48.42,63.87
					c-10.97,7.84-9.8,4.92-14.26,4.43C290.47,193.27,268.85,182.6,253.74,136.94z"/>
				
					<linearGradient id="SVGID_34_" gradientUnits="userSpaceOnUse" x1="425.7963" y1="199.6442" x2="376.7963" y2="123.6442" gradientTransform="matrix(1 0 0 1 -96.1809 0)">
					<stop  offset="0" style="stop-color:#FFC1BF;stop-opacity:0"/>
					<stop  offset="0.5108" style="stop-color:#FFC1BF"/>
					<stop  offset="1" style="stop-color:#FFC1BF;stop-opacity:0"/>
				</linearGradient>
				<path class="st49" d="M275.51,127.92c6.51-2.16,12.83-7.16,13.53-12.91c16.56,24.92,27.87,50.88,45.16,81.21
					C313.58,188.36,284.24,163.93,275.51,127.92z"/>
			</g>
		</g>
		<g>
			<g>
				<path class="st10" d="M189.48,248.34c-4.12-36.89-45.85-33.52-46.17-5.22c2.32,2.21,7.52,3.35,7.52,3.35
					C152.43,231.84,179.21,220.07,189.48,248.34z"/>
				<path class="st10" d="M150.82,247.16c-0.46,3.56-0.21,5.23,0.08,7.69c-3.63,1.05-9.8-1.37-12.58-9.47
					C143.59,246.7,147.3,247.63,150.82,247.16z"/>
			</g>
			<g>
				<g>
					<radialGradient id="SVGID_35_" cx="244.7442" cy="192.8191" r="41.9845" gradientUnits="userSpaceOnUse">
						<stop  offset="0" style="stop-color:#F39E95"/>
						<stop  offset="1" style="stop-color:#F39E95;stop-opacity:0"/>
					</radialGradient>
					<path class="st50" d="M224.62,228.67c-12.22-46.75,62.72-42.18,75.34-19.97C281.95,210.69,237.11,234.96,224.62,228.67z"/>
					<path class="st25" d="M227.01,206.19c1.71-5.42,2.57-8.75,11.77-9.94C236.67,200,228.71,203.28,227.01,206.19z"/>
				</g>
				<path class="st31" d="M236.69,242.04c-0.03,4.72-3.97,14.14,12.37,11.26C245,251.33,238.38,246.34,236.69,242.04z"/>
				
					<radialGradient id="SVGID_36_" cx="405.9934" cy="226.75" r="31.3825" fx="380.8849" fy="226.2532" gradientTransform="matrix(0.6911 -0.7228 0.6219 0.5946 -158.3545 384.0721)" gradientUnits="userSpaceOnUse">
					<stop  offset="0" style="stop-color:#FFFFFF"/>
					<stop  offset="0.3339" style="stop-color:#FDFDFC"/>
					<stop  offset="0.5826" style="stop-color:#F8F5F3"/>
					<stop  offset="0.7634" style="stop-color:#F0EBE6"/>
					<stop  offset="0.8233" style="stop-color:#E0D5CC"/>
					<stop  offset="0.9411" style="stop-color:#C3AE9C"/>
					<stop  offset="1" style="stop-color:#B89F8A"/>
				</radialGradient>
				<path class="st51" d="M291.08,223.08c-6.69,20.13-30.61,34.08-44.29,29.4c-9.28-3.17-14.79-17.98-10.86-33.22
					s18.46-24.67,32.47-21.06C282.39,201.8,295.1,210.96,291.08,223.08z"/>
				<g>
					<defs>
						<path id="SVGID_37_" d="M291.08,223.08c-6.69,20.13-30.61,34.08-44.29,29.4c-9.28-3.17-14.79-17.98-10.86-33.22
							s18.46-24.67,32.47-21.06C282.39,201.8,295.1,210.96,291.08,223.08z"/>
					</defs>
					<clipPath id="SVGID_38_">
						<use xlink:href="#SVGID_37_"  style="overflow:visible;"/>
					</clipPath>
					<g class="st52">
						
							<radialGradient id="SVGID_39_" cx="413.9345" cy="232.7189" r="31.8913" gradientTransform="matrix(1 7.390464e-03 -7.390464e-03 1 -141.0822 -4.2952)" gradientUnits="userSpaceOnUse">
							<stop  offset="0" style="stop-color:#085FB7"/>
							<stop  offset="0.2204" style="stop-color:#084576"/>
							<stop  offset="1" style="stop-color:#08265E"/>
						</radialGradient>
						<path class="st53" d="M290.98,220.78c1.13,12.9-7.66,24.22-19.63,25.27c-11.97,1.05-22.6-8.56-23.73-21.46
							c-1.13-12.9,7.66-24.22,19.63-25.27C279.22,198.27,289.85,207.88,290.98,220.78z"/>
						
							<radialGradient id="SVGID_40_" cx="413.7338" cy="231.7854" r="28.4996" gradientTransform="matrix(1 7.390464e-03 -7.390464e-03 1 -141.0822 -4.2952)" gradientUnits="userSpaceOnUse">
							<stop  offset="0" style="stop-color:#089FF7"/>
							<stop  offset="0.2204" style="stop-color:#087CB6"/>
							<stop  offset="1" style="stop-color:#08569E"/>
						</radialGradient>
						<path class="st54" d="M288.67,220.98c1.01,11.53-6.84,21.64-17.54,22.58c-10.7,0.94-20.19-7.65-21.21-19.18
							c-1.01-11.53,6.84-21.64,17.54-22.58C278.17,200.87,287.66,209.45,288.67,220.98z"/>
						<g class="st55">
							<path class="st56" d="M288.86,220.97c0.09,1.08-7.88,2.15-7.97,3.19c-0.09,1.08,7.56,3.53,7.28,4.54
								c-0.28,1.04-8.12-0.77-8.58,0.18c-0.47,0.97,5.78,6.02,5.15,6.86c-0.64,0.86-7.23-3.73-8.02-3.02
								c-0.79,0.71,3.01,7.78,2.09,8.32c-0.92,0.53-5.09-6.32-6.11-6c-1,0.31-0.49,8.33-1.57,8.42c-1.08,0.09-1.97-7.88-3.01-8.02
								c-1.06-0.14-3.98,7.33-4.98,6.97c-1-0.36,1.51-7.99,0.61-8.55c-0.9-0.56-6.59,5.11-7.37,4.37c-0.77-0.72,4.5-6.79,3.87-7.66
								c-0.62-0.85-8.02,2.29-8.48,1.32c-0.45-0.95,6.66-4.7,6.38-5.74c-0.27-1.01-8.31-0.67-8.4-1.75
								c-0.09-1.08,7.88-2.15,7.97-3.19c0.09-1.08-7.56-3.53-7.28-4.54c0.28-1.04,8.12,0.77,8.58-0.18
								c0.47-0.97-5.78-6.02-5.15-6.86c0.64-0.86,7.23,3.73,8.02,3.02c0.79-0.71-3.01-7.78-2.09-8.32c0.92-0.53,5.09,6.32,6.11,6
								c1-0.31,0.49-8.33,1.57-8.42c1.08-0.09,1.97,7.88,3.01,8.02c1.06,0.14,3.98-7.33,4.98-6.97c1,0.36-1.51,7.99-0.61,8.55
								c0.9,0.56,6.59-5.11,7.37-4.37c0.77,0.72-4.5,6.79-3.87,7.66c0.62,0.85,8.02-2.29,8.48-1.32c0.45,0.95-6.66,4.7-6.38,5.74
								C280.73,220.23,288.76,219.89,288.86,220.97z"/>
						</g>
						
							<ellipse transform="matrix(0.9962 -0.0874 0.0874 0.9962 -18.4049 24.3363)" class="st56" cx="268.75" cy="222.38" rx="8.85" ry="9.04"/>
						<ellipse transform="matrix(0.9962 -0.0874 0.0874 0.9962 -18.4049 24.3363)" cx="268.75" cy="222.38" rx="7.01" ry="7.16"/>
						<circle class="st57" cx="273.72" cy="215.84" r="3.24"/>
					</g>
				</g>
				<path class="st58" d="M246.24,202.78c-4.14,0.26-22.26,15.78-9.45,39.65C233.19,230.29,235.53,214.21,246.24,202.78z"/>
				<g>
					<path class="st10" d="M232.05,227.3c-0.33-40.38,56.79-40.48,70.9-15.92c-4.15,2.51-12.74,4.99-12.74,4.99
						C281.27,199.83,239.83,198.97,232.05,227.3z"/>
					<path class="st10" d="M290.21,216.37c0.62,3.54,0.55,5.63,0.38,8.09c3.68,0.88,10.01-1.98,12.4-10.2
						C297.78,215.82,293.74,216.68,290.21,216.37z"/>
				</g>
			</g>
		</g>
	</g>
	<g>
		<g>
			<g>
				<path d="M371.21,330.53l2.41-3.01c1.13-0.83,3.47,1.21,3.01,2.79l-3.12,2.3L371.21,330.53z"/>
				<path class="st16" d="M306.87,391.32l54.78-57.7l9.63-3.32l2.23,2.3l-3.08,8.79l-55.03,58.45
					C310.23,403.87,302.95,395.59,306.87,391.32z"/>
				<path class="st59" d="M361.65,333.63l4.93-0.01l-1.66,4.73l4.14-2.25l-1.89,5.44l3.55-3.31l-0.29,3.17c0,0,2.24-5.99,3.08-8.79
					c0.67-2.24-0.53-2.79-2.23-2.3C368.55,331.09,361.65,333.63,361.65,333.63z"/>
			</g>
			
				<radialGradient id="SVGID_41_" cx="67.7851" cy="344.4661" r="37.5417" gradientTransform="matrix(-1 0 0 1 386.9132 0)" gradientUnits="userSpaceOnUse">
				<stop  offset="0" style="stop-color:#E6B89A"/>
				<stop  offset="1" style="stop-color:#CC8168"/>
			</radialGradient>
			<path class="st60" d="M308.71,349.95c1-1.5,17.24-15.94,19.74-15.44s14.76,5.94,16.26,6.94s12,2.5,12.5,4s-2.13,6.71-9.63,6.21
				s-18.08-6.85-18.08-6.85c-0.5,2-4.48,10.21-6.48,10.21L308.71,349.95z"/>
			<path class="st61" d="M223.57,480c-14.98,7.97-28.42-8.33-16.29-30.19c3.03-5.46,12.39-13.2,20.49-16.86L223.57,480z"/>
			
				<radialGradient id="SVGID_42_" cx="410.9021" cy="352.0482" r="163.4157" gradientTransform="matrix(0.8901 -0.4557 0.3419 0.6678 -173.7827 304.2095)" gradientUnits="userSpaceOnUse">
				<stop  offset="0" style="stop-color:#E6B89A"/>
				<stop  offset="0.5071" style="stop-color:#E5B698"/>
				<stop  offset="0.6898" style="stop-color:#E2AF92"/>
				<stop  offset="0.82" style="stop-color:#DCA487"/>
				<stop  offset="0.9245" style="stop-color:#D49378"/>
				<stop  offset="1" style="stop-color:#CC8168"/>
			</radialGradient>
			<path class="st62" d="M314.71,426.95c-18.33,6.34-55.92,48.77-89.15,53.05c-13.44,1.73-27.49-10.19-15.35-32.05
				c3.03-5.46,11.55-12.51,19.64-16.17c25.55-11.57,57.97-17.79,59.11-20.83c1.5-4,8.09-45.48,8.52-47.99
				c1.05-6.09,10.23-11.5,11.23-13l14.32,5.07c3.26,5.39,4.19,10.64,2.69,12.14c2,2,6.59,6.14,7.49,10.29
				C336.02,390.36,333.44,420.48,314.71,426.95z"/>
			
				<radialGradient id="SVGID_43_" cx="31.7955" cy="360.6175" r="66.18" gradientTransform="matrix(-1 0 0 1 386.9132 0)" gradientUnits="userSpaceOnUse">
				<stop  offset="0" style="stop-color:#E6B89A"/>
				<stop  offset="1" style="stop-color:#CC8168"/>
			</radialGradient>
			<path class="st63" d="M333.21,377.45c4.69-3.16,6.58-0.54,10.7-4.1c0-3.5,2.16-14.11,7.69-16.88c3-1.5,6.89,1.1,5.31,6.19
				c-1.08,3.48-0.81,12.19-2.69,16.88c-1.13,2.82-11.51,14.41-13.01,18.41s-16.64,29-26.5,29
				C342.44,410.95,309.49,393.42,333.21,377.45z"/>
			
				<radialGradient id="SVGID_44_" cx="409.9906" cy="376.9329" r="52.1357" gradientTransform="matrix(1 0 0 1 -90.6996 0)" gradientUnits="userSpaceOnUse">
				<stop  offset="0" style="stop-color:#9E5545"/>
				<stop  offset="1" style="stop-color:#9E5545;stop-opacity:0"/>
			</radialGradient>
			<path class="st64" d="M306.76,364.12c1.95,8.64,3.85,9.69-1.01,16.19c7.28,2.58,37.77,29.16,8.96,46.65
				c15.22-5.15,29.74-29.83,29.2-53.6C343.38,349.58,303.43,349.31,306.76,364.12z"/>
			<path class="st65" d="M327.77,404.25c-2.98-4.04-4.42-14.37,3.08-18.23C328.1,388.74,325.44,396.33,327.77,404.25z"/>
			<linearGradient id="SVGID_45_" gradientUnits="userSpaceOnUse" x1="318.5854" y1="410.7352" x2="329.3348" y2="410.7352">
				<stop  offset="0" style="stop-color:#CC8570"/>
				<stop  offset="1" style="stop-color:#914425"/>
			</linearGradient>
			<path class="st66" d="M323.35,397.05c1.92,3.5,8.25,18.01-4.77,27.38C324.14,421.78,336.81,411.8,323.35,397.05z"/>
			<linearGradient id="SVGID_46_" gradientUnits="userSpaceOnUse" x1="349.9277" y1="377.5571" x2="341.9844" y2="380.6372">
				<stop  offset="0" style="stop-color:#CC8570"/>
				<stop  offset="1" style="stop-color:#914425"/>
			</linearGradient>
			<path class="st67" d="M343.91,373.35c-1.95,6.48-0.2,12.36,1.05,12.67C344.71,380.08,343.8,375.08,343.91,373.35z"/>
		</g>
		<g>
			<linearGradient id="SVGID_47_" gradientUnits="userSpaceOnUse" x1="305.7547" y1="374.7312" x2="356.1685" y2="374.7312">
				<stop  offset="0" style="stop-color:#2B1628"/>
				<stop  offset="1" style="stop-color:#101017"/>
			</linearGradient>
			<path class="st68" d="M306.87,391.32l38.03-40.05c0.92,0.19,1.83,0.33,2.69,0.39c4.4,0.29,7.12-1.38,8.51-3.12
				c0.32,2.04-0.43,4.61-3.56,7.61c-0.32,0.07-0.63,0.17-0.94,0.32c-1.27,0.63-2.35,1.69-3.28,2.97h0c0,0,0,0,0,0
				c-0.74,1.02-1.37,2.17-1.91,3.39c0,0,0,0.01-0.01,0.01c-0.18,0.4-0.34,0.8-0.5,1.2c-0.01,0.02-0.01,0.03-0.02,0.05
				c-0.15,0.39-0.29,0.79-0.42,1.18c-0.01,0.03-0.02,0.06-0.03,0.08c-0.13,0.39-0.25,0.77-0.36,1.16c-0.01,0.03-0.02,0.06-0.03,0.09
				c-0.11,0.39-0.21,0.77-0.31,1.14c-0.01,0.02-0.01,0.04-0.02,0.07c-0.1,0.39-0.18,0.77-0.26,1.15l-29.07,30.88
				C310.23,403.87,302.95,395.59,306.87,391.32z"/>
			<path d="M319.4,395.59c-1,1.06-4,4.26-4,4.26c-5.17,4.02-12.45-4.26-8.53-8.52c0,0,2.98-3.09,3.94-4.15
				C314.7,382.88,323.09,391.67,319.4,395.59z"/>
		</g>
		<g>
			<path class="st65" d="M350.33,353.51c-1.33,1.38-4.08,2.29-8.53,1.33c-1.77-0.38-13.62-2.41-16.18-4.66
				c-0.62,3.03-12.16,8.14-15.97,6.97c-3.81-1.17-4.37-7.83,1.51-11.2c8.51-4.88,15.17-7.89,16.03-7.63
				c1.75,0.54,20.53,9.42,23.09,11.04c0.62,0.39,0.98,1.03,1.02,1.75l-1.96,0.23L350.33,353.51"/>
			
				<radialGradient id="SVGID_48_" cx="410.618" cy="346.0404" r="38.5376" gradientTransform="matrix(1 0 0 1 -98.5738 0)" gradientUnits="userSpaceOnUse">
				<stop  offset="0" style="stop-color:#E6B89A"/>
				<stop  offset="1" style="stop-color:#CC8168"/>
			</radialGradient>
			<path class="st69" d="M310.31,347c8.63-4.67,15.36-7.52,16.21-7.24c1.74,0.58,20.3,9.91,22.82,11.59
				c2.52,1.68,0.39,7.44-8.6,5.27c-1.76-0.43-13.56-2.73-16.07-5.04c-0.69,3.01-12.35,7.85-16.13,6.59
				C304.75,356.9,304.36,350.22,310.31,347z"/>
			<path class="st65" d="M344,360.72c-1.38,1.44-4.3,2.35-9.08,1.01c-6.01-1.7-9.35-2.95-14.64-6.87
				c-1.93,1.71-11.06,8.17-14.88,7.04c-3.83-1.13-5.96-8.95,0.38-11.32c11.56-4.32,14.93-3.45,17.43-3.96s18.18,8.44,20.76,10.03
				l-4.81-0.4l4.28,4.2L344,360.72"/>
			
				<radialGradient id="SVGID_49_" cx="406.795" cy="353.0333" r="35.6217" gradientTransform="matrix(1 0 0 1 -98.5738 0)" gradientUnits="userSpaceOnUse">
				<stop  offset="0" style="stop-color:#E6B89A"/>
				<stop  offset="1" style="stop-color:#CC8168"/>
			</radialGradient>
			<path class="st70" d="M305.01,351.26c11.7-3.91,15.04-2.93,17.56-3.35s17.87,9.07,20.4,10.75s0.09,7.73-9.21,4.75
				c-5.95-1.91-9.25-3.28-14.4-7.37c-1.99,1.64-11.34,7.78-15.12,6.52C300.45,361.29,298.59,353.4,305.01,351.26z"/>
			<linearGradient id="SVGID_50_" gradientUnits="userSpaceOnUse" x1="301.4003" y1="365.2527" x2="316.3144" y2="378.0593">
				<stop  offset="0" style="stop-color:#CC8570"/>
				<stop  offset="1" style="stop-color:#914425"/>
			</linearGradient>
			<path class="st71" d="M317.83,366.4c-0.84,6.64-8.29,13.76-14.06,13.85C316.74,381.1,317.65,371.14,317.83,366.4z"/>
			<path class="st65" d="M335.99,369.53c-1.06,1.26-2.94,1.94-5.53,0.78c-5.7-2.57-10.08-6.99-13.44-8.98
				c-1.48,1.16-11.39,4.45-15.06,2.89c-3.67-1.56-5.7-5.17,0.11-8.64c4.99-2.98,15.83-4.46,17.37-3.87
				c0.99,0.38,10.7,8.19,14.98,11.62l-3.95-1.02L335.99,369.53"/>
			
				<radialGradient id="SVGID_51_" cx="399.0606" cy="374.8697" r="36.1177" gradientTransform="matrix(0.9902 -0.1397 0.1397 0.9902 -145.6725 42.4177)" gradientUnits="userSpaceOnUse">
				<stop  offset="0.1265" style="stop-color:#E6B89A"/>
				<stop  offset="1" style="stop-color:#CC8168"/>
			</radialGradient>
			<path class="st72" d="M302.09,355.23c5.19-2.62,15.97-2.51,17.47-1.82c1.13,0.52,13.56,11.18,15.8,13.22
				c2.24,2.04-0.46,7.58-5.97,4.62c-5.5-2.96-10.55-5.65-13.76-7.87c-1.56,1.05-11.21,5.26-14.76,3.45
				C297.32,365.02,296.05,358.29,302.09,355.23z"/>
		</g>
	</g>
</g>
<rect id="Mask" x="66.19" y="44.78" class="st57" width="347.13" height="440.2"/>
<g id="Lines">
	<path class="st73" d="M356.31,179.64c3.64,7.09,6.39,15.27,7.97,24.81c5.56-7.04,9.08-14.27,10.85-21.45
		c16.27,6.24,29.97,10.36,37.33,11.47c8-60.32-41.24-85.03-61.15-86.79c30.7-8.73,16.37-38.9,54.48-24.38
		c-35.18-45.27-69.26-26.29-87.89-14.48c10.89-13.88,24.81-20.69,46.37-22.74c-27.36-3.88-46.65,0.95-57.32,13.92
		c0.62-3.08,1.59-6.06,3.47-8.32c-21.33-4.52-41.09,6.57-47.46,25.46"/>
	<g>
		<path class="st73" d="M128.43,268.39c2.1,3.85,4.41,7.56,6.95,11.11"/>
		<path class="st73" d="M352.35,217.09c0.09,0.23,0.31,0.52,0.35,0.34c2.37-12.52,3.61-25.36,3.61-37.61
			c0-34.56-9.11-57.2-27.33-71.15C310.55,86.75,281,75.47,241.32,76.3c-20.71,0.43-38.64,4.48-53.96,11.3"/>
		<path class="st73" d="M293.29,316.45c7.53-4.63,14.4-10.37,20.61-16.97"/>
	</g>
	<g>
		<g>
			<path class="st73" d="M294.48,381.25c-0.17-0.15-0.35-0.3-0.53-0.45c-5.07-4.32-11.69-8.65-19.22-12.64"/>
			<path class="st73" d="M267.68,459.93c13.98,1.98,27.02,4.97,36.65,9.43c0.65,0.34,1.28,0.69,1.89,1.05
				c0.41,0.32,0.81,0.64,1.19,0.96c0.01-0.07,0.03-0.14,0.04-0.2c1.08,0.7,2.08,1.43,2.96,2.2c3.07-14.66,5.03-30.93,3.89-46.27"/>
			<path class="st73" d="M231.8,343.66c-3.18,9.42-11.9,9.94-21.7,9.28c17.62,10.19,43.91,48.03,81.36,31.81
				c-26.7-17.46-23.06-38.77-20.27-55.02"/>
		</g>
		<g>
			<g>
				<path class="st61" d="M221.79,436.22c-2.04-6.68-4-13.38-5.87-20.1l-1.43-5.04l-1.52-5.01c-1-3.34-1.97-6.7-2.86-10.08
					c1.26,3.26,2.45,6.55,3.61,9.84l1.71,4.96c0.53,1.66,1.01,3.35,1.52,5.02c2.02,6.69,3.96,13.41,5.81,20.15L221.79,436.22z"/>
			</g>
			<path class="st73" d="M227.05,350.32c-18.02-3.51-35.15-2.18-45.95,7.01c-3.05,2.59-5.36,6.04-7.06,10.09
				c-11.84,22.49-11.33,76.63,17.3,103.96l-0.7-0.75c3.89,4.21,8.37,7.9,13.47,10.88c9.72,5.69,17.35,3.78,21.72-1.45"/>
			<path class="st73" d="M186.57,360.83c-19.5,10-17.5,49.5,0.33,55.39c0.67-0.53,1.3-1.09,1.92-1.67
				C211.32,394.23,204.96,365.06,186.57,360.83z"/>
		</g>
	</g>
	<g>
		<g>
			<path class="st73" d="M138.86,243.77c-6.45,27.99-7.94,51.27,19.2,74.1c20.31,17.09,45.44,25.63,59.33,27.49
				c12.18,1.63,71.66-15.71,90.14-43.42c1.67-2.5,3.23-6.64,4.64-11.97"/>
			<g>
				<path class="st73" d="M352.55,217.56c-3.78-9.69-10.53-15.89-17.26-15.39"/>
				<path class="st73" d="M337.14,269.57c11.05-4.32,19.33-24.91,18.35-38.59c-0.14-1.98-0.4-3.9-0.75-5.75"/>
			</g>
			<g>
				<g>
					<g>
						<path class="st61" d="M232.53,315.44c-1.03,1.35-2.41,2.44-3.92,3.26c-1.51,0.83-3.14,1.41-4.81,1.8
							c-1.67,0.38-3.39,0.57-5.1,0.52c-1.7-0.04-3.45-0.32-4.98-1.07c1.65,0.38,3.32,0.37,4.96,0.29c1.65-0.11,3.29-0.34,4.89-0.72
							c1.61-0.36,3.18-0.87,4.69-1.53C229.77,317.33,231.22,316.51,232.53,315.44z"/>
					</g>
					<path class="st73" d="M202.37,303.8c0.18,0.41,0.42,0.8,0.72,1.19c3.64,2.41,12.53,5.45,22.93,3.53
						c8.76-1.62,15.99-6.65,19.53-11.23c0.06-0.34,0.08-0.65,0.07-0.96c-8.07,7.48-15.41,5.19-24.84,4.57
						c-0.78,1.49-2.62,4.7-4.19,4.98c-1.95,0.35-5.28-2.63-7.09-4.43c-1.9,0.35-3.87,0.86-5.96,1.6
						C203.16,303.18,202.64,303.45,202.37,303.8z"/>
				</g>
				<g>
					<path class="st61" d="M198.28,274.81c-0.67,0.47-1.04,1.2-1.17,1.95c-0.15,0.75-0.11,1.53,0.05,2.27
						c0.33,1.48,1.22,2.8,2.49,3.54c1.26,0.76,2.83,0.98,4.38,0.86c1.56-0.12,3.13-0.49,4.68-0.96c-1.4,0.83-2.94,1.47-4.59,1.73
						c-1.63,0.29-3.46,0.13-4.99-0.78c-1.52-0.91-2.54-2.55-2.74-4.26c-0.12-0.85-0.04-1.73,0.24-2.53
						C196.94,275.85,197.49,275.08,198.28,274.81z"/>
				</g>
			</g>
		</g>
		<g>
			<path class="st73" d="M307.54,219.66c-7.12,13.91-10.62,31.29-2.76,49.81c14.02,33.01,13.06,45.19-9.68,62.85
				c26.78-3.8,59.22-40.26,34.26-82.1c-2.58-4.33-7.6-13.92-8.48-26.43"/>
			<g>
				<g>
					<path class="st61" d="M226.69,113.27c-3.93,1-7.7,2.66-10.93,5.05c-3.25,2.38-5.92,5.46-8.01,8.87l0,0l-0.57-0.75
						c3.87-1.23,7.9-2.05,11.98-2.17c4.08-0.15,8.2,0.48,12.04,1.9c3.84,1.41,7.39,3.54,10.51,6.16c3.11,2.63,5.82,5.69,8.28,8.91
						l-0.84,0.06c0.85-1.54,1.87-2.97,3.03-4.28l-0.12,0.31c0.18-4.45-0.06-8.94-1.3-13.19c-1.21-4.25-3.5-8.16-6.69-11.21
						l0.69-0.72c1.65,1.59,3.09,3.4,4.26,5.37c1.17,1.97,2.07,4.1,2.7,6.29c1.28,4.4,1.51,9,1.33,13.51l-0.01,0.18l-0.12,0.13
						c-1.11,1.26-2.09,2.64-2.9,4.1l-0.37,0.67l-0.47-0.61c-2.43-3.17-5.08-6.17-8.12-8.74c-3.05-2.56-6.5-4.62-10.22-5.99
						c-3.72-1.38-7.7-1.98-11.67-1.84c-3.97,0.12-7.9,0.92-11.7,2.13l-1.39,0.44l0.81-1.19l0,0c2.29-3.41,5.17-6.45,8.57-8.74
						C218.86,115.61,222.72,114.1,226.69,113.27z"/>
				</g>
				<path class="st73" d="M249.57,141.55c-1.5,2.71-2.47,5.73-2.79,8.97c1.87,10.45,10.17,28.5,25.01,44.34"/>
				<path class="st73" d="M202.61,136.46c12.04-3.15,25.05-4.74,37.96-4.4"/>
				<path class="st73" d="M244.4,112.57c-5.21-3.68-10.14-6.88-14.92-9.62c-27.45-17.14-48.81-19.52-83.57-8.76
					c-36.81,11.4-62.04,48.78-56.22,92.27c2.22,16.62-7.98,19.59-17.33,39.99c-14.27,31.14-3.66,66.93,31.34,86.46
					c13.92,9,32.29,15.23,55.08,17.05c-33.17-24.06-43.43-41.84-20.45-84.59c0.79-3.05,2.78-6.28,6.11-9.57"/>
				<path class="st73" d="M167.42,221.48c32.06-19.18,23.66-69.43,39.89-94.56"/>
			</g>
			<path class="st73" d="M302.15,217.32c16.93,8.03,37.75,11.58,62.5,6.2c-14.82-5.18-23.6-12.72-29.36-21.34"/>
		</g>
		<g>
			<g>
				<path class="st73" d="M189.48,248.34c-4.12-36.89-45.85-33.52-46.17-5.22c2.32,2.21,7.52,3.35,7.52,3.35
					C152.43,231.84,179.21,220.07,189.48,248.34z"/>
				<path class="st73" d="M150.82,247.16c-0.46,3.56-0.21,5.23,0.08,7.69c-3.63,1.05-9.8-1.37-12.58-9.47
					C143.59,246.7,147.3,247.63,150.82,247.16z"/>
			</g>
			<g>
				<g>
					<path class="st73" d="M253.41,206.44c-4.11,4.67-6.4,11.17-5.79,18.14c1.13,12.9,11.76,22.51,23.73,21.46
						c0.74-0.07,1.47-0.17,2.19-0.31"/>
					<path class="st73" d="M290.21,216.37c-7.87-14.57-40.95-16.96-54.04,2.04c-0.08,0.28-0.17,0.57-0.24,0.85
						c-3.93,15.24,1.59,30.05,10.86,33.22c13.38,4.57,36.52-8.66,43.8-28.05C290.76,221.98,290.83,219.89,290.21,216.37z"/>
					<path class="st73" d="M274.85,218.87c-0.36,0.13-0.75,0.22-1.15,0.21c-1.79-0.01-3.23-1.48-3.22-3.27
						c0-0.12,0.02-0.24,0.04-0.36c-0.76-0.21-1.56-0.29-2.39-0.22c-3.86,0.34-6.71,3.81-6.36,7.75s3.75,6.86,7.61,6.52
						s6.71-3.81,6.36-7.75C275.65,220.71,275.33,219.74,274.85,218.87z"/>
				</g>
				<g>
					<path class="st73" d="M232.05,227.3c-0.33-40.38,56.79-40.48,70.9-15.92c-4.15,2.51-12.74,4.99-12.74,4.99
						C281.27,199.83,239.83,198.97,232.05,227.3z"/>
					<path class="st73" d="M290.21,216.37c0.62,3.54,0.55,5.63,0.38,8.09c3.68,0.88,10.01-1.98,12.4-10.2
						C297.78,215.82,293.74,216.68,290.21,216.37z"/>
				</g>
			</g>
			<path class="st73" d="M259.79,179.66c-20.64,7.29-36.58,11.23-41.29,11.63c1.58-3.36,3.62-7.12,5.82-8.63
				c6.83-3.25,17.09-8.14,33-6.91"/>
		</g>
	</g>
	<g>
		<g>
			<path class="st73" d="M355.79,356.95l14.64-15.55l3.08-8.79l3.12-2.3c0.45-1.58-1.88-3.62-3.01-2.79l-2.28,2.85l-0.06-0.06
				l-9.63,3.32l-9.21,9.7"/>
			<line class="st73" x1="338.22" y1="375.62" x2="344.47" y2="368.98"/>
			<path class="st73" d="M327.09,370.02l-20.22,21.3c-3.92,4.26,3.36,12.54,8.53,8.52l8.69-9.23"/>
			<path class="st73" d="M319.4,395.59c-1,1.06-4,4.26-4,4.26c-5.17,4.02-12.45-4.26-8.53-8.52c0,0,2.98-3.09,3.94-4.15
				C314.7,382.88,323.09,391.67,319.4,395.59z"/>
		</g>
		<g>
			<g>
				<path class="st61" d="M324.22,395.72c-0.64-2.7-0.77-5.64,0.1-8.39c0.84-2.76,2.59-5.15,4.62-7.11
					c1.02-0.98,2.13-1.86,3.28-2.68c1.13-0.82,2.41-1.59,3.81-2.01c1.41-0.44,2.87-0.42,4.13-0.72c1.27-0.28,2.4-0.98,3.42-1.85
					l-0.17,0.38c0.06-2.39,0.54-4.66,1.16-6.9c0.64-2.24,1.49-4.43,2.74-6.44c0.61-1.01,1.37-1.95,2.27-2.76l0.7-0.58l0.79-0.48
					c0.51-0.33,1.17-0.55,1.81-0.62c1.3-0.16,2.66,0.32,3.57,1.26c0.92,0.94,1.36,2.25,1.36,3.49c0.05,1.24-0.4,2.48-0.61,3.49
					c-0.21,1.09-0.34,2.22-0.45,3.35c-0.22,2.27-0.39,4.57-0.69,6.86c-0.16,1.15-0.33,2.3-0.61,3.44c-0.29,1.13-0.59,2.31-1.28,3.36
					c-1.27,2-2.71,3.76-4.11,5.59c-1.41,1.81-2.82,3.61-4.2,5.44c-1.36,1.82-2.74,3.67-3.78,5.61l-0.33,0.73
					c-0.11,0.29-0.24,0.57-0.36,0.83c-0.25,0.53-0.52,1.05-0.79,1.56c-0.55,1.02-1.13,2.02-1.72,3.01
					c-1.19,1.98-2.43,3.92-3.73,5.82c-2.61,3.8-5.41,7.48-8.59,10.85c-1.59,1.68-3.3,3.27-5.2,4.66c-0.96,0.68-1.96,1.32-3.07,1.81
					c-1.1,0.49-2.29,0.86-3.57,0.87l0.21-0.03c-2.71,0.96-5.27,2.4-7.76,3.95c-2.48,1.56-4.89,3.25-7.28,4.98
					c-4.75,3.48-9.4,7.13-14.07,10.75c-9.33,7.25-18.74,14.47-28.85,20.68c-5.06,3.08-10.28,5.94-15.78,8.22
					c-5.5,2.25-11.23,4.04-17.25,4.53c-1.52,0.06-3.03-0.05-4.53-0.29c-1.49-0.29-2.95-0.72-4.35-1.32
					c-1.38-0.63-2.7-1.41-3.89-2.36c-1.17-0.97-2.24-2.08-3.11-3.33c-1.72-2.52-2.74-5.52-2.87-8.54c-0.14-3.03,0.45-6.03,1.54-8.78
					c-0.59,2.9-0.92,5.83-0.64,8.71c0.25,2.87,1.18,5.67,2.8,8.03c0.82,1.17,1.82,2.2,2.92,3.12c1.12,0.89,2.37,1.62,3.67,2.21
					c1.32,0.57,2.7,0.97,4.12,1.24c1.42,0.23,2.86,0.33,4.3,0.27c5.78-0.48,11.48-2.26,16.88-4.48c5.42-2.26,10.59-5.11,15.61-8.18
					c10.03-6.19,19.4-13.4,28.7-20.67c4.66-3.63,9.3-7.29,14.08-10.8c2.4-1.74,4.82-3.45,7.34-5.04c2.52-1.58,5.13-3.06,8-4.09
					l0.09-0.03l0.12,0c2.07-0.06,4.12-1.14,5.91-2.43c1.81-1.31,3.48-2.85,5.04-4.49c3.12-3.29,5.9-6.93,8.49-10.68
					c1.29-1.88,2.53-3.8,3.71-5.75c0.59-0.98,1.16-1.96,1.7-2.96c0.27-0.5,0.53-1,0.77-1.5c0.12-0.25,0.23-0.5,0.33-0.74l0.38-0.84
					c1.14-2.1,2.53-3.93,3.9-5.78c1.39-1.84,2.81-3.64,4.22-5.44c1.39-1.81,2.85-3.61,4.05-5.48c0.59-0.87,0.87-1.95,1.15-3.03
					c0.27-1.08,0.44-2.21,0.6-3.33c0.3-2.25,0.47-4.53,0.7-6.82c0.12-1.15,0.25-2.3,0.48-3.46c0.27-1.22,0.63-2.18,0.59-3.25
					c0-1.04-0.35-2.06-1.05-2.77c-0.68-0.71-1.7-1.08-2.69-0.96c-0.49,0.06-0.96,0.2-1.41,0.49l-0.68,0.41l-0.62,0.52
					c-0.8,0.72-1.51,1.58-2.08,2.53c-1.19,1.88-2.02,4-2.64,6.17c-0.61,2.16-1.08,4.42-1.14,6.62l-0.01,0.24l-0.17,0.15
					c-1.08,0.93-2.39,1.74-3.85,2.06c-1.45,0.33-2.82,0.3-4.08,0.7c-1.27,0.38-2.41,1.05-3.53,1.86c-1.12,0.79-2.19,1.64-3.17,2.58
					c-1.97,1.87-3.58,4.13-4.43,6.69C324.28,390.16,324.13,392.93,324.22,395.72z"/>
			</g>
			<g>
				<path class="st61" d="M325.89,400.06c-1.05-2.5-1.25-5.41-0.47-8.11c0.41-1.34,1.07-2.62,2.02-3.66
					c0.93-1.05,2.14-1.82,3.42-2.27c-1.1,0.8-2.05,1.72-2.81,2.76c-0.75,1.05-1.31,2.21-1.67,3.45
					C325.64,394.71,325.62,397.37,325.89,400.06z"/>
			</g>
			<g>
				<path class="st61" d="M318.59,424.42c1.21-0.71,2.36-1.49,3.42-2.38c1.08-0.87,2.08-1.82,2.97-2.86
					c1.78-2.07,3.16-4.5,3.64-7.15c0.51-2.64,0.09-5.4-0.95-7.93c-0.52-1.26-1.14-2.5-1.91-3.65c-0.71-1.2-1.57-2.29-2.41-3.41
					c2.02,1.93,3.8,4.17,5.02,6.76c1.25,2.56,1.76,5.56,1.23,8.42c-0.54,2.86-2.07,5.46-4.06,7.48
					C323.56,421.74,321.19,423.38,318.59,424.42z"/>
			</g>
			<g>
				<path class="st61" d="M344.39,373.49c-0.33,1.03-0.63,2.07-0.8,3.14c-0.18,1.07-0.3,2.16-0.29,3.25c0,1.09,0.08,2.19,0.29,3.26
					c0.1,0.54,0.25,1.07,0.44,1.58c0.21,0.49,0.43,1.05,0.94,1.3c-0.53-0.21-0.8-0.77-1.05-1.25c-0.23-0.51-0.43-1.03-0.56-1.57
					c-0.3-1.08-0.46-2.19-0.54-3.3c-0.09-1.12-0.05-2.24,0.05-3.36c0.09-1.12,0.32-2.23,0.58-3.33L344.39,373.49z"/>
			</g>
		</g>
		<g>
			<path class="st73" d="M313.66,345.23c5.3-4.69,13.13-11.05,14.8-10.72c2.5,0.5,14.76,5.94,16.26,6.94s12,2.5,12.5,4
				c0.45,1.35-1.63,5.7-7.51,6.2"/>
			<path class="st73" d="M306.5,350.77c0.71-1.41,1.95-2.76,3.81-3.77c8.63-4.67,15.36-7.52,16.21-7.24
				c1.74,0.58,20.3,9.91,22.82,11.59c2.52,1.68,0.39,7.44-8.6,5.27c-0.29-0.07-0.85-0.19-1.59-0.35"/>
			<path class="st73" d="M300.83,356.05c0.25-2,1.49-3.9,4.17-4.8c11.7-3.91,15.04-2.93,17.56-3.35s17.87,9.07,20.4,10.75
				s0.09,7.73-9.21,4.75c-1.19-0.38-2.27-0.74-3.28-1.1"/>
			<g>
				<path class="st61" d="M303.77,380.25c0.96-0.13,1.91-0.07,2.84-0.26l1.39-0.21l1.35-0.36c1.76-0.55,3.39-1.44,4.63-2.76
					c1.26-1.3,2.12-2.96,2.7-4.72c0.58-1.77,0.88-3.65,1.15-5.54c0.11,1.91,0.08,3.85-0.4,5.75c-0.46,1.89-1.34,3.74-2.73,5.2
					c-1.39,1.45-3.24,2.4-5.16,2.82C307.63,380.66,305.66,380.48,303.77,380.25z"/>
			</g>
			<g>
				<path class="st61" d="M210.21,447.95c1.27-2.62,3.21-4.87,5.26-6.92c2.07-2.06,4.36-3.87,6.77-5.52
					c2.42-1.63,4.96-3.1,7.62-4.29c2.64-1.2,5.32-2.31,8.01-3.38c10.79-4.26,21.87-7.66,32.97-10.93l8.3-2.48
					c1.38-0.42,2.75-0.86,4.11-1.32c1.35-0.47,2.72-0.94,3.96-1.55c0.32-0.15,0.59-0.32,0.85-0.49c0.08-0.08,0.26-0.19,0.27-0.25
					c0.01-0.03,0.04-0.03,0.06-0.08l0.07-0.25c0.2-0.64,0.36-1.34,0.51-2.04c0.31-1.4,0.59-2.81,0.86-4.23
					c0.55-2.83,1.05-5.68,1.55-8.53l2.93-17.09l1.42-8.56l0.7-4.28l0.35-2.14c0.07-0.36,0.1-0.7,0.21-1.12
					c0.1-0.38,0.22-0.72,0.35-1.08l-0.04,0.21c-0.03-1.66,0.56-3.33,1.61-4.6c1.05-1.29,2.48-2.16,3.96-2.74
					c2.97-1.11,6.07-1.5,9.14-1.72c1.54-0.09,3.09-0.12,4.64-0.06c0.78,0.04,1.55,0.08,2.36,0.23c0.19,0.03,0.42,0.09,0.65,0.17
					c0.21,0.08,0.43,0.24,0.59,0.35c0.32,0.23,0.63,0.47,0.93,0.71c2.41,1.91,4.73,3.89,7.07,5.87c2.33,1.99,4.64,3.98,6.94,6.01
					l0.43,0.39c0.15,0.14,0.3,0.34,0.45,0.51c0.13,0.19,0.22,0.4,0.32,0.61c0.07,0.21,0.12,0.44,0.17,0.65
					c0.13,0.89-0.08,1.78-0.52,2.52c-0.86,1.52-2.76,2.3-4.4,1.99c-0.83-0.1-1.59-0.41-2.31-0.76c-0.7-0.36-1.35-0.73-2.03-1.1
					l-4.02-2.22c-2.67-1.49-5.33-3.03-7.84-4.82l0.31,0c-0.74,0.45-1.49,0.76-2.25,1.09c-0.76,0.32-1.53,0.6-2.31,0.87
					c-1.55,0.53-3.13,0.99-4.75,1.28c1.58-0.43,3.12-0.96,4.63-1.59c0.75-0.31,1.5-0.65,2.23-0.99c0.73-0.35,1.48-0.71,2.12-1.13
					l0.15-0.1l0.16,0.1c2.54,1.66,5.24,3.09,7.91,4.56l4.04,2.15c0.67,0.35,1.36,0.73,2.02,1.05c0.65,0.31,1.32,0.59,2.02,0.66
					c1.38,0.24,2.78-0.37,3.45-1.54c0.34-0.57,0.49-1.26,0.39-1.89l-0.12-0.45c-0.08-0.13-0.14-0.27-0.22-0.4
					c-0.11-0.11-0.19-0.22-0.31-0.35l-0.42-0.38c-2.29-2.01-4.61-4-6.94-5.97c-2.33-1.97-4.67-3.95-7.05-5.82
					c-0.3-0.24-0.6-0.46-0.89-0.68c-0.29-0.21-0.47-0.3-0.85-0.35c-0.69-0.13-1.46-0.18-2.2-0.21c-1.5-0.06-3.02-0.02-4.53,0.07
					c-3,0.22-6.05,0.62-8.81,1.67c-1.36,0.53-2.61,1.32-3.5,2.42c-0.89,1.09-1.38,2.48-1.35,3.88l0,0.1l-0.04,0.1
					c-0.12,0.32-0.23,0.66-0.32,0.98c-0.08,0.28-0.12,0.67-0.18,1.01l-0.35,2.14l-0.69,4.28l-1.39,8.56
					c-0.94,5.71-1.88,11.42-2.88,17.11c-0.51,2.85-1.02,5.7-1.57,8.54c-0.28,1.42-0.56,2.84-0.88,4.27
					c-0.16,0.71-0.32,1.42-0.55,2.16l-0.08,0.27c-0.05,0.11-0.14,0.26-0.23,0.37c-0.18,0.25-0.34,0.32-0.52,0.49
					c-0.34,0.23-0.68,0.43-1.02,0.59c-1.36,0.66-2.73,1.13-4.11,1.61c-1.38,0.47-2.76,0.9-4.15,1.32l-8.32,2.46
					c-11.1,3.24-22.16,6.6-32.9,10.82c-2.68,1.06-5.35,2.16-7.98,3.34c-2.61,1.16-5.11,2.59-7.49,4.19
					c-2.38,1.6-4.66,3.35-6.81,5.24c-1.08,0.95-2.11,1.94-3.08,3C211.92,445.62,211.02,446.75,210.21,447.95z"/>
			</g>
		</g>
	</g>
</g>
</svg>
