<?xml version="1.0" encoding="utf-8"?>
<!-- Generator: Adobe Illustrator 24.3.0, SVG Export Plug-In . SVG Version: 6.00 Build 0)  -->
<svg version="1.1" id="colors" xmlns="http://www.w3.org/2000/svg" xmlns:xlink="http://www.w3.org/1999/xlink" x="0px" y="0px"
	 viewBox="0 0 408 512" style="enable-background:new 0 0 408 512;" xml:space="preserve">
<style type="text/css">
	.st0{fill:#2B1628;}
</style>
<g>
	<path class="st0" d="M387.61,105.01c-15.94-19.89-38.36-29.38-51.31-31.46c13.25-4.54,18.81-12.85,23.32-19.61
		c6.78-10.15,11.67-17.48,36.91-7.87l1.93,0.74l-1.27-1.63c-40.44-52.04-80.27-30.88-99.61-18.83
		c12.18-14.11,27.68-21.16,51.08-23.38l4.87-0.46l-4.85-0.69c-30.56-4.33-52.56,0.57-65.44,14.58c0.82-3.07,1.91-5.37,3.38-7.14
		l0.61-0.74l-0.94-0.2c-24.5-5.19-47.76,7.18-55.52,29.45c-7.82-0.79-16.06-1.1-24.71-0.92c-23.13,0.48-44.25,4.9-62.77,13.15
		l0.07,0.16c-14.19-0.87-29.44,1.69-48.06,7.45C50.82,71.39,23.24,116.63,29.74,165.2c1.59,11.88-2.34,17.54-8.29,26.11
		c-3.43,4.94-7.7,11.1-11.75,19.93c-8.24,17.98-9.4,37.73-3.27,55.59c6.43,18.73,20.21,34.42,39.82,45.36
		c17.25,11.16,38.82,17.84,64.12,19.85l2.06,0.16l-1.67-1.21c-29.69-21.54-43.63-38.87-35.3-69.34c2.27,4.06,4.73,7.96,7.34,11.61
		c1.97,15.22,9.18,30.13,26.42,44.63c25.38,21.35,55.36,30.16,69.07,32c0.63,0.08,1.37,0.13,2.21,0.13c3.23,0,7.95-0.63,13.65-1.85
		c-1.13,2.81-2.77,4.84-4.76,6.28c-22.98-4.42-41.96-1.48-53.46,8.31c-3.45,2.93-6.25,6.93-8.32,11.87
		c-14.38,27.32-12.25,90.25,20.17,121.2l0,0c4.48,4.68,9.49,8.66,14.91,11.83c4.65,2.72,9.17,4.07,13.29,4.07
		c4.95,0,9.31-1.96,12.57-5.82c6.04-0.81,11.83-2.69,17.41-4.97c6.38-2.64,12.43-5.96,18.29-9.53c4.43-2.72,8.73-5.6,12.97-8.59
		c17.69,2.55,31.72,6.17,41.66,10.78c0.74,0.39,1.47,0.79,2.1,1.16c0.47,0.37,0.93,0.73,1.36,1.1l0.82,0.59l0.04-0.28
		c0.99,0.68,1.85,1.33,2.61,2l0.75,0.65l0.2-0.97c4.12-19.66,5.64-37.54,4.55-53.17c0.02-0.01,0.05-0.02,0.07-0.03
		c1.41-0.05,2.73-0.45,3.95-0.99c1.29-0.57,2.45-1.31,3.56-2.1c2.2-1.61,4.18-3.45,6.03-5.4c3.69-3.91,6.93-8.17,9.96-12.58
		c1.51-2.2,2.94-4.45,4.32-6.75c0.68-1.15,1.36-2.31,1.99-3.49c0.31-0.59,0.63-1.19,0.92-1.81c0.14-0.3,0.29-0.63,0.42-0.96
		l0.38-0.85c1.21-2.25,2.81-4.39,4.38-6.5c1.6-2.12,3.23-4.21,4.87-6.31c1.62-2.12,3.29-4.16,4.76-6.48
		c0.8-1.22,1.15-2.58,1.48-3.89c0.32-1.32,0.52-2.65,0.71-3.99c0.35-2.65,0.54-5.32,0.8-7.95c0.13-1.31,0.28-2.62,0.52-3.88
		c0.24-1.17,0.77-2.61,0.71-4.05c0-1.4-0.49-2.86-1.5-3.95l16.55-17.58l3.64-10.23l3.63-2.68l0.05-0.19
		c0.38-1.34-0.55-2.82-1.66-3.6c-0.99-0.69-2.01-0.79-2.73-0.26l-2.54,3.15l-11.31,3.9l-10.72,11.29c-0.8-0.2-1.67-0.4-2.63-0.63
		c-2.46-0.58-5.01-1.17-5.63-1.58c-1.81-1.21-16.09-7.54-19.06-8.13c-2.61-0.55-14.07,9.39-17.6,12.52
		c-1.29,0.66-2.57,1.34-3.83,2.02c-2.01,1.09-3.55,2.61-4.51,4.38c-0.51,0.16-1.02,0.33-1.55,0.5c-2.87,0.96-4.67,2.96-5.15,5.65
		c-0.63,0.46-1.22,0.98-1.73,1.6c-1.19,1.44-1.87,3.33-1.86,5.21c-0.13,0.37-0.26,0.73-0.36,1.13c-0.13,0.49-0.16,0.88-0.24,1.3
		l-0.41,2.48l-0.81,4.96l-1.65,9.92l-0.32,1.88c-5.76-4.86-13.37-9.85-22.03-14.45c-8.78-14.91-6.21-30.41-3.93-43.7
		c8.17-3.98,17.28-9.11,25.39-15.28l0,0c8.14-5.01,15.88-11.32,23.03-18.76c0.71,14.47-6.11,24.18-21.59,36.2l-1.72,1.34l2.16-0.31
		c17.93-2.54,35.9-16.63,44.7-35.06c5.71-11.95,7.21-24.91,4.57-37.9c12.83-5.44,22.37-29.17,21.23-45.13
		c-0.14-2.02-0.42-4.08-0.78-6.13c3.61-0.48,7.26-1.11,10.95-1.91l2.01-0.44l-1.94-0.68c-4.96-1.73-9.45-3.77-13.54-6.08l0.06-0.32
		c2.6-13.73,4.02-28.01,4.17-41.46c3.79,7.94,6.53,16.8,8.12,26.4l0.21,1.29l0.81-1.03c6.12-7.75,10.33-15.97,12.52-24.45
		c18,6.88,33.96,11.76,42.79,13.1l0.58,0.09l0.08-0.58C408.64,147.32,402.78,123.95,387.61,105.01z M108.39,330.71
		c-24.21-2.2-44.9-8.75-61.55-19.52c-38.9-21.71-53.4-61.68-36.09-99.48c4.01-8.74,8.07-14.59,11.65-19.75
		c5.88-8.47,10.13-14.59,8.48-26.92c-6.42-48,20.82-92.72,64.77-106.33c40.11-12.41,64.43-9.87,96.41,10.1
		c5.36,3.08,11.01,6.71,17.25,11.12l0,0c3.67,3.53,6.31,8.04,7.7,12.94c1.42,4.86,1.71,10,1.51,15.09c-1.1,1.26-2.08,2.62-2.94,4.06
		c-2.71-3.48-5.68-6.79-9.06-9.66c-3.62-3.04-7.73-5.51-12.18-7.14c-4.45-1.65-9.23-2.38-13.96-2.2c-4.2,0.12-8.35,0.89-12.37,2.06
		c2.28-3.42,5.09-6.51,8.43-8.95c3.74-2.77,8.11-4.69,12.67-5.85c-4.6,0.96-9.08,2.71-13.02,5.39c-3.94,2.65-7.27,6.17-9.93,10.12
		l-0.01,0c-0.03,0.04-0.05,0.08-0.08,0.12l-0.86,1.27l0.11-0.04c-6.76,11.27-9.64,26.26-12.67,42.12
		c-4.92,25.73-10.01,52.34-32.38,65.84c-1.53-0.19-3.06-0.25-4.57-0.17c-9.19,0.46-19,6.02-22.5,17.12
		c-3.56,3.55-5.88,7.14-6.92,10.67l-0.51-0.13l0.27,0.78C59.66,282.62,71.46,303.58,108.39,330.71z M203.45,101.46
		c-13.71-0.2-27.92,1.47-41.3,4.87c1.38-3.49,2.98-6.76,4.87-9.72c4.35-1.37,8.84-2.28,13.38-2.41c4.6-0.16,9.22,0.53,13.53,2.13
		C197.33,97.58,200.52,99.33,203.45,101.46z M92.07,231.22c2.12,2.02,6.11,3.27,7.98,3.78c-3.52,0.23-7.4-0.68-12.48-1.95
		c0.1-0.44,0.2-0.87,0.3-1.31c0.95-2.42,2.53-4.88,4.74-7.34c-0.44,1.98-0.69,4.11-0.72,6.4l0,0.25L92.07,231.22z M100.51,236.14
		c-0.39,3.48-0.17,5.42,0.12,7.82c-3.77,0.76-9.87-1.71-13.02-9.71C92.82,235.55,96.78,236.46,100.51,236.14z M93.05,230.55
		c0.3-16.04,11.96-23.92,22.73-24.46c12-0.6,25.06,7.31,28.9,26.1c-7.55-15.83-19.29-16.34-24.27-15.74
		c-9.87,1.19-18.39,8.81-19.71,17.51C99.16,233.57,95.16,232.4,93.05,230.55z M75.88,260.09c2.05-6.98,5.23-14.64,9.65-23.19
		c-2.44,11.45-4.07,22.78-3.02,33.95C80.16,267.43,77.93,263.83,75.88,260.09z M178.42,348.74c-13.59-1.82-43.3-10.55-68.48-31.74
		c-17.29-14.55-24.41-29.19-26.21-44.36l0.02-0.02c-0.01-0.01-0.02-0.03-0.03-0.04c-1.41-11.91,0.46-24.14,3.26-36.89
		c3.09,6.86,8.37,9.54,12.34,9.54c0.76,0,1.47-0.1,2.11-0.28l0.47-0.14l-0.11-0.95c-0.31-2.6-0.53-4.48-0.04-8.31l0.1-0.75
		l-0.09,0.01l0.01-0.07c0.91-8.31,9.33-16,18.78-17.14c10.86-1.3,19.94,5.78,24.9,19.44l1.66,4.57l-0.54-4.83
		c-2.17-19.38-13.05-29.23-24.52-31.41c21.83-13.97,26.88-40.35,31.77-65.89c2.19-11.43,4.29-22.42,7.83-31.83
		c14.02-3.64,29-5.38,43.35-5.02c0.27,0.21,0.53,0.42,0.79,0.64c3.43,2.9,6.43,6.27,9.18,9.84c-1.71,3.2-2.77,6.65-3.13,10.28
		l-0.01,0.08l0.01,0.08c1.33,7.42,5.29,17.66,11.73,28.51c-17.94-1.13-29.64,4.41-37.52,8.17c-2.82,1.93-5.31,6.77-6.94,10.23
		l-0.43,0.91l1-0.09c5.3-0.45,23.53-4.89,47.58-13.36c3.6,5.4,7.81,10.84,12.6,16.08c-5.66-0.24-11.43,0.32-16.98,1.83
		c-18.02,4.89-28.27,18.24-28.12,36.63l0.03,4.17l1.1-4.02c0.68-2.46,1.62-4.78,2.78-6.95c-3.24,16.46,2.66,32.8,13.56,36.53
		c2.11,0.72,4.45,1.07,6.94,1.07c15.42,0,36.56-13.32,44.37-33.45c0.38,0.06,0.77,0.1,1.19,0.1c3.7,0,8.73-2.46,11.8-8.42
		c1.82,0.86,3.66,1.66,5.51,2.41c-9.72,19.34-10.75,39.26-2.94,57.65c3.88,9.13,6.72,16.85,8.48,23.59
		c-1.66,6.23-3.42,10.78-5.24,13.5c-19.75,29.62-83.1,50.21-101.67,50.21C179.83,348.87,179.07,348.83,178.42,348.74z
		 M224.29,153.27c0.74,1.22,1.51,2.44,2.31,3.67c-22.45,7.89-39.73,12.25-46,13.09c2.28-4.69,4.27-7.58,6.04-8.8
		C194.43,157.52,206.18,151.94,224.29,153.27z M263.9,205.26c-0.01-0.27-0.02-0.54-0.03-0.82c-0.01-0.18-0.01-0.35-0.03-0.54
		c-0.01-0.2-0.03-0.42-0.05-0.63c-0.01-0.18-0.03-0.35-0.05-0.53c-0.02-0.21-0.05-0.44-0.07-0.66c-0.02-0.2-0.05-0.41-0.08-0.62
		c-0.03-0.21-0.06-0.44-0.1-0.66c-0.02-0.13-0.03-0.25-0.06-0.38c3.38,0.17,7.34-0.5,13.24-2.21c-2.8,8.21-9.06,11.07-12.88,10.49
		c0.01-0.18,0.02-0.37,0.03-0.55c0-0.01,0-0.02,0-0.03c0.02-0.28,0.03-0.56,0.04-0.85c0-0.08,0.01-0.17,0.01-0.25
		c0.01-0.23,0.01-0.47,0.01-0.7c0-0.11,0-0.23,0.01-0.34C263.91,205.74,263.91,205.5,263.9,205.26z M263.03,199.1
		c-0.07-0.12-0.15-0.22-0.22-0.34c-0.24-0.39-0.49-0.77-0.75-1.15c-0.09-0.13-0.18-0.25-0.28-0.38c-4.41-5.89-12.69-9.96-22.62-11.1
		c-0.09-0.01-0.18-0.02-0.27-0.03c-0.72-0.08-1.45-0.14-2.18-0.19c-0.18-0.01-0.35-0.03-0.53-0.04c0,0,0,0,0,0
		c-0.75-0.04-1.52-0.06-2.29-0.07c-1.99-0.02-4.01,0.08-6.04,0.31c-7.94,0.91-14.88,3.6-20.42,7.72c-0.05,0.04-0.11,0.08-0.16,0.12
		c-0.59,0.44-1.17,0.9-1.72,1.38c-0.22,0.19-0.44,0.38-0.66,0.58c-0.39,0.35-0.78,0.71-1.15,1.08c-0.29,0.28-0.57,0.56-0.85,0.86
		c-0.31,0.33-0.61,0.67-0.91,1.01c-0.28,0.32-0.57,0.64-0.84,0.98c-0.34,0.42-0.66,0.87-0.99,1.31c-0.17,0.23-0.35,0.45-0.52,0.69
		l-0.01,0.03c-1.42,2.05-2.62,4.27-3.57,6.65c1.26-15.78,10.97-27.17,27.13-31.55c4.65-1.26,9.45-1.86,14.21-1.86
		c1.19,0,2.38,0.05,3.56,0.12c0.01,0.01,0.02,0.02,0.03,0.03l0.03-0.03c15.13,0.96,29.26,7.86,35.72,18.57
		C272.49,196.19,264.93,198.53,263.03,199.1z M212.81,209.36c0.65,7.38,3.92,14.08,9.23,18.88c4.76,4.31,10.65,6.62,16.77,6.62
		c0.68,0,1.37-0.03,2.06-0.09c-9.86,6.26-20.68,8.92-28.26,6.34c-10.94-3.74-16.54-21.06-12.21-37.82c0.06-0.22,0.12-0.46,0.19-0.68
		l0.03-0.11c0.25-0.35,0.5-0.7,0.76-1.04c0.19-0.25,0.38-0.51,0.57-0.76c0.37-0.46,0.76-0.91,1.15-1.35
		c0.19-0.22,0.38-0.43,0.58-0.64c0.38-0.4,0.78-0.79,1.18-1.18c0.26-0.25,0.53-0.5,0.8-0.74c0.32-0.29,0.66-0.57,0.99-0.85
		c0.41-0.34,0.82-0.67,1.24-0.98c0.19-0.14,0.38-0.28,0.58-0.42c3.08-2.2,6.45-3.85,9.91-5.04
		C214.2,195.03,212.18,202.16,212.81,209.36z M240.84,233.61c-6.55,0.57-12.95-1.64-18.03-6.23c-5.09-4.6-8.23-11.04-8.85-18.12
		c-0.66-7.51,1.68-14.93,6.42-20.41c5.39-1.57,10.9-2.08,15.74-1.82c0.41,0.02,0.8,0.06,1.21,0.09c0.43,0.04,0.87,0.07,1.3,0.11
		c0.29,0.03,0.58,0.07,0.87,0.11c0.62,0.08,1.24,0.16,1.85,0.27c0.12,0.02,0.24,0.04,0.36,0.06c7.6,1.36,14.17,4.57,18.18,9.07
		c0.05,0.05,0.1,0.11,0.14,0.16c0.37,0.42,0.71,0.86,1.03,1.3c0.06,0.09,0.14,0.18,0.2,0.27c0.34,0.49,0.66,1,0.94,1.52
		c0.08,0.45,0.15,0.89,0.21,1.3c0,0.01,0,0.03,0.01,0.04c0.26,1.83,0.34,3.31,0.34,4.7c-0.01,1.01-0.06,1.97-0.13,2.97
		c-3.77,9.99-11.19,18.43-19.55,24.29C242.36,233.43,241.63,233.53,240.84,233.61z M285.8,496.64c-0.81-0.65-1.71-1.3-2.75-1.97
		l-0.72-0.36l-0.01,0.03c-0.23-0.18-0.47-0.37-0.72-0.57c-0.72-0.42-1.45-0.83-2.24-1.24c-9.85-4.56-23.58-8.16-40.82-10.71
		c6.5-4.64,12.83-9.51,19.12-14.41c5.41-4.2,10.8-8.43,16.31-12.46c2.77-2.01,5.56-3.96,8.44-5.77c2.5-1.55,5.06-2.99,7.74-4.07
		C291.17,460.29,289.72,477.61,285.8,496.64z M345.89,336.22l10.68-3.68l0.27,0.28l2.99-3.74c0.3-0.17,0.81-0.05,1.33,0.31
		c0.71,0.5,1.33,1.41,1.25,2.16l-3.58,2.64l-3.59,10.24l-16.5,17.53c-0.97-0.64-2.18-0.95-3.34-0.8c-0.74,0.08-1.51,0.34-2.1,0.72
		l-0.92,0.56l-0.81,0.67c-1.04,0.94-1.92,2.03-2.63,3.2c-1.45,2.33-2.43,4.87-3.18,7.47c-0.24,0.88-0.46,1.77-0.65,2.66l-6.99,7.42
		c-0.75,0.1-1.51,0.21-2.26,0.45c-1.62,0.49-3.11,1.38-4.42,2.33c-1.33,0.95-2.62,1.97-3.8,3.11c-2.35,2.27-4.38,5.04-5.36,8.24
		c-0.36,1.13-0.56,2.28-0.65,3.44l-0.04-0.03l-3.38,3.59c0.02-0.66-0.07-1.36-0.3-2.09c-0.98-3.19-4.1-6.2-7.1-6.87
		c-0.56-0.12-1.1-0.16-1.61-0.12l16.43-17.31l0.1,0.05c0.79,0.43,1.54,0.86,2.35,1.28c0.83,0.41,1.72,0.77,2.68,0.88
		c1.9,0.36,4.1-0.54,5.1-2.31c0.51-0.86,0.75-1.89,0.6-2.92c-0.06-0.24-0.12-0.51-0.2-0.75c-0.12-0.24-0.22-0.49-0.37-0.71
		c-0.17-0.2-0.35-0.43-0.52-0.59l-0.5-0.45c-1.02-0.9-2.05-1.8-3.08-2.69c0.41,0.13,0.81,0.27,1.24,0.4
		c2.13,0.68,3.97,0.97,5.53,0.97c3.62,0,5.76-1.53,6.59-3.25c0.78-1.62,0.39-3.37-0.95-4.25c-0.03-0.02-0.63-0.4-1.6-1.01
		c1.07,0.19,2.06,0.28,2.96,0.28c4.03,0,6.31-1.7,7.1-3.51c0.44-1.01,0.43-2.08,0.02-2.95c4.47-0.68,6.63-3.2,7.37-4.32
		c0.85-1.29,1.2-2.63,0.91-3.49c-0.3-0.9-1.94-1.56-5.17-2.4L345.89,336.22z M324.74,378.51c-0.14,0.97-0.26,1.94-0.3,2.94
		c-1.14,0.94-2.39,1.7-3.79,2.01c-0.22,0.05-0.46,0.09-0.69,0.12L324.74,378.51z M296.17,407.14c-0.74,0.79-2.43,2.58-3.53,3.76
		l-1.04,1.1c-2.8,2.17-6.13,0.89-8.18-1.35c-1.2-1.31-2.08-3.08-2.07-4.79c0.01-1.02,0.35-2.01,1.14-2.87
		c0.14-0.15,3.47-3.6,4.58-4.82c0.69-0.77,1.55-1.15,2.54-1.15c0.31,0,0.64,0.04,0.97,0.11c2.59,0.57,5.39,3.3,6.24,6.08
		C297.16,404.33,297.33,405.91,296.17,407.14z M306.98,337.31c2.79,0.56,16.92,6.81,18.64,7.96c0.76,0.5,2.78,0.99,6.01,1.75
		c2.94,0.68,7.85,1.83,8.25,2.59c0.12,0.35,0.01,1.3-0.78,2.49c-0.68,1.04-2.75,3.45-7.21,3.91c-0.09-0.08-0.17-0.16-0.27-0.22
		c-2.94-1.96-24.55-12.82-26.59-13.5c-1.01-0.33-5.72,1.62-11.2,4.29C300.48,340.92,305.85,337.09,306.98,337.31z M286.33,351.73
		c10.28-5.56,17.41-8.45,18.33-8.35c2.01,0.67,23.4,11.42,26.32,13.37c0.86,0.58,1.12,1.7,0.65,2.79
		c-0.86,1.97-4.04,3.75-10.16,2.27c-0.29-0.07-0.82-0.19-1.52-0.34l-0.22-0.05c-6.24-3.83-17.04-10.17-19.56-9.73
		c-0.65,0.11-1.37,0.13-2.27,0.16c-2.57,0.08-6.7,0.23-14.92,2.71C283.81,353.44,284.95,352.48,286.33,351.73z M280.08,356.69
		c10.28-3.44,15.02-3.59,17.85-3.68c0.91-0.03,1.69-0.06,2.42-0.18c2.41-0.41,18.37,9.14,23.23,12.37c0.85,0.57,1.07,1.69,0.55,2.79
		c-0.98,2.05-4.38,3.72-10.72,1.68c-1.37-0.44-2.62-0.85-3.78-1.27l-0.02,0.05c-0.91-0.79-1.83-1.58-2.75-2.36
		c-2.71-2.3-5.4-4.59-8.2-6.8c-0.35-0.28-0.71-0.56-1.08-0.82c-0.19-0.13-0.44-0.31-0.68-0.41c-0.27-0.09-0.53-0.16-0.75-0.2
		c-0.94-0.17-1.83-0.22-2.74-0.27c-1.8-0.07-3.59-0.03-5.38,0.07c-3.56,0.26-7.15,0.71-10.6,1.99c-0.48,0.19-0.95,0.41-1.41,0.65
		C276.68,358.64,278.07,357.37,280.08,356.69z M266.78,390.9c0.06,0.05,0.12,0.1,0.18,0.15l-2.85,16.61
		c-0.58,3.3-1.16,6.61-1.8,9.89c-0.31,1.65-0.64,3.28-1,4.9c-0.17,0.81-0.36,1.62-0.59,2.36l-0.08,0.29
		c-0.02,0.06-0.06,0.06-0.07,0.09c-0.01,0.07-0.22,0.2-0.31,0.29c-0.3,0.2-0.61,0.39-0.99,0.57c-1.44,0.71-3.03,1.25-4.59,1.8
		c-1.58,0.53-3.16,1.04-4.76,1.53l-9.62,2.87c-12.87,3.79-25.71,7.73-38.22,12.67c-3.12,1.24-6.22,2.53-9.29,3.92
		c-2.94,1.32-5.76,2.94-8.45,4.72c-2.08-7.55-4.25-15.09-6.52-22.59c-0.59-1.94-1.15-3.89-1.76-5.82l-1.98-5.75
		c-1.34-3.81-2.72-7.63-4.18-11.41c1.03,3.92,2.16,7.81,3.32,11.68l1.76,5.81l1.66,5.84c2.13,7.67,4.37,15.31,6.69,22.93
		c-2.56,1.79-5,3.74-7.21,5.95c-2.38,2.38-4.63,4.98-6.1,8.02c0.94-1.39,1.98-2.7,3.04-3.98c1.12-1.23,2.32-2.38,3.57-3.48
		c2.49-2.19,5.14-4.22,7.89-6.07c2.76-1.85,5.66-3.51,8.68-4.86c3.05-1.37,6.14-2.64,9.25-3.87c12.45-4.89,25.27-8.79,38.14-12.54
		l9.64-2.85c1.61-0.49,3.21-0.99,4.81-1.53c1.6-0.56,3.19-1.1,4.76-1.87c0.39-0.19,0.79-0.42,1.18-0.68c0.21-0.2,0.39-0.28,0.6-0.57
		c0.1-0.13,0.21-0.3,0.27-0.43l0.09-0.31c0.27-0.86,0.45-1.68,0.64-2.5c0.37-1.66,0.7-3.3,1.02-4.95c0.64-3.29,1.23-6.6,1.82-9.9
		c1.16-6.6,2.25-13.21,3.34-19.83l1.61-9.92l0.8-4.96l0.41-2.48c0.07-0.39,0.12-0.85,0.21-1.17c0.1-0.37,0.23-0.77,0.37-1.14
		l0.05-0.12v-0.12c-0.03-1.62,0.53-3.23,1.56-4.5c1.03-1.28,2.48-2.19,4.06-2.81c3.2-1.22,6.73-1.68,10.21-1.94
		c1.75-0.1,3.51-0.15,5.25-0.08c0.86,0.03,1.75,0.09,2.55,0.24c0.44,0.06,0.65,0.16,0.99,0.41c0.34,0.26,0.68,0.51,1.03,0.79
		c2.76,2.17,5.47,4.46,8.17,6.75c2.7,2.28,5.39,4.59,8.04,6.92l0.49,0.44c0.14,0.15,0.23,0.28,0.36,0.41
		c0.09,0.15,0.16,0.31,0.26,0.46l0.14,0.52c0.12,0.73-0.06,1.53-0.45,2.19c-0.78,1.36-2.4,2.06-4,1.79
		c-0.81-0.08-1.59-0.41-2.34-0.77c-0.77-0.37-1.56-0.81-2.34-1.22l-4.68-2.49c-3.1-1.7-6.22-3.36-9.17-5.29l-0.19-0.12l-0.17,0.12
		c-0.74,0.49-1.61,0.9-2.46,1.31c-0.85,0.39-1.72,0.79-2.59,1.15c-1.75,0.73-3.54,1.34-5.37,1.84c1.88-0.34,3.71-0.87,5.51-1.48
		c0.9-0.31,1.8-0.64,2.68-1.01c0.81-0.35,1.61-0.7,2.41-1.16c2.86,2.03,5.89,3.78,8.93,5.48l3.51,1.94l-22.96,24.19
		c-0.98,1.06-1.41,2.29-1.45,3.53c-0.07,2.07,0.95,4.19,2.37,5.73c1.52,1.65,3.64,2.84,5.86,2.84c1.32,0,2.67-0.42,3.96-1.43
		c0,0,1.75-1.86,3.18-3.38l6.04-6.41c0.02,1.56,0.24,3.12,0.59,4.61c-0.06-1.85-0.02-3.68,0.21-5.46l0.06-0.06l-0.05-0.04
		c0.18-1.3,0.46-2.57,0.9-3.79c0.99-2.97,2.85-5.59,5.14-7.76c1.14-1.09,2.38-2.07,3.67-2.99c1.3-0.94,2.62-1.72,4.09-2.16
		c1.46-0.46,3.05-0.43,4.73-0.81c1.16-0.25,2.23-0.79,3.2-1.44c-0.15,0.75-0.27,1.51-0.33,2.27c-0.12,1.3-0.16,2.6-0.06,3.89
		c0.09,1.29,0.28,2.57,0.63,3.83c0.15,0.63,0.38,1.23,0.65,1.82c0.29,0.56,0.6,1.21,1.22,1.45c-0.59-0.29-0.85-0.94-1.09-1.51
		c-0.22-0.59-0.39-1.21-0.51-1.83c-0.24-1.24-0.34-2.52-0.34-3.78c-0.01-1.26,0.13-2.53,0.34-3.77c0.18-1.16,0.51-2.29,0.86-3.41
		l0.1-0.09l0.01-0.28c0.07-2.55,0.61-5.17,1.32-7.67c0.72-2.52,1.68-4.97,3.06-7.15c0.66-1.1,1.48-2.1,2.41-2.93l0.72-0.6l0.79-0.48
		c0.52-0.34,1.07-0.5,1.63-0.57c1.15-0.14,2.33,0.29,3.12,1.11c0.81,0.82,1.22,2.01,1.22,3.21c0.05,1.24-0.37,2.35-0.68,3.77
		c-0.27,1.34-0.42,2.68-0.56,4.01c-0.27,2.65-0.46,5.3-0.81,7.91c-0.19,1.3-0.38,2.61-0.7,3.86c-0.32,1.25-0.65,2.5-1.33,3.51
		c-1.39,2.17-3.08,4.25-4.69,6.35c-1.63,2.09-3.28,4.17-4.89,6.31c-1.59,2.14-3.2,4.27-4.52,6.7l-0.44,0.97
		c-0.12,0.28-0.24,0.57-0.38,0.86c-0.28,0.58-0.58,1.16-0.89,1.74c-0.63,1.16-1.29,2.3-1.97,3.43c-1.37,2.26-2.81,4.49-4.3,6.67
		c-2.51,3.64-5.19,7.17-8.12,10.47c1.37-1.91,2.39-4.09,2.83-6.43c0.61-3.32,0.02-6.79-1.43-9.76c-0.78-1.66-1.78-3.19-2.9-4.61
		c-0.28-3.02-0.24-6.01,0.59-8.8c0.42-1.44,1.07-2.78,1.94-4c0.88-1.21,1.98-2.27,3.26-3.2c-1.48,0.52-2.89,1.41-3.96,2.63
		c-1.1,1.21-1.87,2.69-2.34,4.24c-0.86,2.97-0.68,6.16,0.38,8.95c-0.86-1.08-1.79-2.11-2.78-3.05c0.97,1.3,1.97,2.56,2.79,3.95
		c0.89,1.33,1.61,2.77,2.21,4.23c1.21,2.93,1.69,6.13,1.1,9.19c-0.56,3.07-2.16,5.89-4.22,8.29c-1.03,1.21-2.19,2.31-3.44,3.32
		c-1.23,1.03-2.56,1.94-3.96,2.76c2.11-0.85,4.08-2.05,5.87-3.5c-1.12,1.04-2.28,2.02-3.51,2.91c-2.07,1.5-4.45,2.75-6.85,2.82
		h-0.14l-0.1,0.03c-3.33,1.19-6.35,2.91-9.27,4.74c-2.92,1.84-5.73,3.83-8.51,5.84c-5.54,4.07-10.92,8.31-16.32,12.52
		c-10.78,8.43-21.64,16.79-33.27,23.96c-5.82,3.56-11.81,6.86-18.1,9.48c-6.26,2.57-12.87,4.64-19.57,5.19
		c-1.67,0.07-3.34-0.05-4.98-0.31c-1.65-0.31-3.25-0.78-4.78-1.44c-1.51-0.68-2.96-1.53-4.25-2.56c-1.28-1.07-2.43-2.26-3.38-3.62
		c-1.88-2.74-2.96-5.98-3.25-9.31c-0.32-3.34,0.06-6.73,0.74-10.1c-1.26,3.19-1.95,6.67-1.79,10.18c0.15,3.5,1.33,6.98,3.33,9.9
		c1.01,1.45,2.25,2.74,3.61,3.86c1.38,1.1,2.91,2.01,4.51,2.74c1.62,0.7,3.32,1.19,5.04,1.53c1.74,0.28,3.49,0.41,5.25,0.34
		c0.28-0.02,0.56-0.06,0.84-0.09c-5.68,5.81-14.17,6.05-23.53,0.56c-5.47-3.2-10.52-7.23-15.01-12l-0.47-0.51l-0.04,0.04
		c-31.26-30.87-33.21-92.24-19.09-119.06c2.02-4.81,4.72-8.67,8.03-11.48c11.02-9.38,29.18-12.28,51.25-8.27
		c-4.88,2.67-11.44,2.6-17.97,2.16l-2.49-0.17l2.16,1.25c4.88,2.82,10.27,7.43,16.5,12.76c14.72,12.59,33.65,28.78,56.87,28.78
		c6.78,0,13.94-1.38,21.46-4.64l0.99-0.43l-0.9-0.59c-8.42-5.51-14.2-11.3-18.11-17.22C254.38,381.63,261.38,386.3,266.78,390.9z
		 M262.98,394.86c-32.14,13.25-57.53-8.47-76.13-24.38c-5.46-4.67-10.26-8.78-14.7-11.67c9.97,0.49,19.57-0.48,23.31-10.96
		c9.16-2.06,20.64-5.56,32.6-10.42c3.44-1.4,7.51-3.16,11.88-5.25C236.83,350.43,233.28,374.91,262.98,394.86z M275.03,309.11
		c3.16-3.07,5.98-6.34,8.29-9.8c1.69-2.52,3.31-6.51,4.85-11.85c0.7,3.03,1.17,5.86,1.39,8.53
		C284.95,300.85,280.09,305.24,275.03,309.11z M312.16,299.22c-8.28,17.33-24.79,30.74-41.6,34.03
		c24.37-19.49,26.02-33.5,9.61-72.13c-9.67-22.79-3.81-43.38,2.95-56.78c4.78,1.88,9.66,3.39,14.64,4.54
		c1.02,13.16,5.91,23.8,9.87,30.45C319.51,259.22,321.11,280.49,312.16,299.22z M317.51,260.67c-1.64-7.37-4.58-14.75-8.87-21.94
		c-3.86-6.47-8.62-16.81-9.68-29.58c7.55,1.65,15.32,2.49,23.29,2.49c4.87,0,9.81-0.32,14.83-0.94c0.36,2.03,0.63,4.07,0.78,6.07
		C338.96,232.29,329.83,255.27,317.51,260.67z M334.9,199.38c-4.64-10.71-12.33-17.18-19.93-16.63l0.04,0.59l-0.48,0.32
		c7.29,10.9,17.9,18.86,32.4,24.27c-25.11,5.08-48.61,2.56-69.88-7.47c0.41-0.91,0.77-1.89,1.08-2.95l0.3-1.02l-1.02,0.31
		c-4.52,1.35-7.9,2.11-10.71,2.37c3.35-1.11,8.16-2.87,11.13-4.66l0.48-0.29l-0.28-0.49c-6.44-11.21-20.95-18.51-36.53-19.62
		c-16.58-17.83-26.26-38.24-28.51-50.67c0.36-3.49,1.39-6.81,3.05-9.88l0.12-0.22c0.94-1.69,2.07-3.29,3.36-4.75l0.14-0.15
		l0.01-0.21c0.21-5.23-0.06-10.56-1.54-15.66c-0.73-2.54-1.77-5.01-3.13-7.29c-1.36-2.28-3.03-4.38-4.94-6.22l-0.47,0.49l0.38-0.54
		c-6.27-4.43-11.95-8.09-17.32-11.17c-16.7-10.43-31.34-16.14-47.18-17.51c17.96-7.7,38.34-11.85,60.6-12.31
		c45.51-0.96,79.54,11.6,101.16,37.32l0.09,0.09c21.16,16.21,31.45,43.03,31.45,82.02C338.8,170.96,337.44,185.44,334.9,199.38z
		 M334.13,200.56c-7.43-4.47-13.39-9.99-18.03-16.66C323.02,184.01,329.94,190.4,334.13,200.56z M403.97,173.74
		c-8.96-1.46-24.78-6.35-42.57-13.17l-0.61-0.24l-0.16,0.64c-2.01,8.16-5.94,16.1-11.67,23.61c-1.78-10.05-4.81-19.3-9.01-27.5
		c-0.06-39.15-10.48-66.16-31.85-82.55c-17.52-20.81-43.08-33.07-76.13-36.63c7.56-21.27,29.7-33.19,53.19-28.63
		c-1.62,2.24-2.76,5.18-3.56,9.15l-0.46,2.27l1.47-1.79c11.72-14.24,32.26-19.8,61.13-16.54c-22.5,2.93-37.43,10.86-49.34,26.04
		l-2.08,2.65l2.85-1.81C312.66,18.15,353.4-7.67,395,44.27c-24.43-8.82-29.71-0.91-36.35,9.03c-4.93,7.38-10.52,15.76-25.23,19.94
		l-3.02,0.86l3.13,0.28c12.14,1.07,36.31,10.31,53.17,31.36C401.56,124.28,407.37,147.16,403.97,173.74z"/>
	<path class="st0" d="M285.16,389.67c2.23-0.49,4.37-1.59,5.98-3.27c1.61-1.69,2.63-3.84,3.16-6.03c0.56-2.2,0.59-4.45,0.46-6.67
		c-0.31,2.19-0.66,4.37-1.33,6.42c-0.67,2.04-1.67,3.96-3.13,5.47c-1.44,1.53-3.33,2.56-5.37,3.2l-1.56,0.42l-1.61,0.24
		c-1.08,0.22-2.18,0.15-3.29,0.3C280.66,390.03,282.95,390.24,285.16,389.67z"/>
	<path class="st0" d="M142.74,366.68l-0.21-0.05l-0.19,0.1c-12.69,6.51-17.28,23.37-16.21,37.2c1.11,14.29,7.5,25.04,16.67,28.08
		l0.3,0.1l0.25-0.19c0.7-0.56,1.42-1.18,2.25-1.96c16.19-14.62,18.74-32.2,15.73-43.78C158.71,376.04,151.76,368.76,142.74,366.68z
		 M144.83,429.1c-0.72,0.67-1.34,1.22-1.94,1.71c-8.44-2.98-14.54-13.52-15.59-26.96c-1.04-13.37,3.32-29.65,15.39-35.98
		c8.48,2.04,15.03,8.97,17.53,18.6C163.14,397.71,160.64,414.82,144.83,429.1z"/>
	<path class="st0" d="M185.51,319.36c-1.85,0.44-3.76,0.71-5.67,0.83c-1.9,0.09-3.84,0.1-5.75-0.34c1.77,0.87,3.8,1.19,5.77,1.24
		c1.98,0.06,3.98-0.16,5.91-0.6c1.94-0.45,3.83-1.12,5.58-2.09c1.75-0.95,3.35-2.21,4.54-3.78c-1.52,1.24-3.2,2.19-4.95,2.96
		C189.19,318.35,187.37,318.94,185.51,319.36z"/>
	<path class="st0" d="M210.67,292.05c-7.67,7.11-14.55,6.44-23.27,5.59c-1.64-0.16-3.33-0.32-5.09-0.44l-0.38-0.02l-0.17,0.33
		c-1.67,3.18-3.37,5.28-4.45,5.47c-1.47,0.26-4.26-1.55-7.71-4.98l-0.22-0.21l-0.3,0.05c-2.37,0.44-4.66,1.05-6.99,1.88
		c-0.26,0.09-1.13,0.42-1.63,1.06l-0.21,0.27l0.14,0.31c0.22,0.5,0.52,0.99,0.91,1.5l0.14,0.13c2.95,1.95,10.07,4.89,19.23,4.89
		c2.46,0,5.07-0.21,7.78-0.71c10.99-2.03,19.26-8.4,22.99-13.23l0.09-0.11l0.02-0.14c0.07-0.42,0.1-0.82,0.09-1.23l-0.04-1.27
		L210.67,292.05z M188.24,306.04c-12.34,2.28-22.4-1.56-26.07-3.95c-0.21-0.28-0.39-0.56-0.53-0.83c0.25-0.19,0.58-0.35,0.85-0.44
		c2.18-0.77,4.32-1.35,6.52-1.78c2.65,2.6,6.19,5.49,8.51,5.08c1.82-0.32,3.74-3.23,5.09-5.74c1.61,0.11,3.17,0.26,4.68,0.41
		c7.84,0.77,14.7,1.43,21.91-3.99C205.15,299.2,197.75,304.28,188.24,306.04z"/>
	<path class="st0" d="M162.96,278.42c1.91-0.3,3.7-1.04,5.32-2.01c-1.8,0.54-3.62,0.97-5.43,1.11c-1.8,0.14-3.62-0.12-5.08-1
		c-1.47-0.86-2.5-2.39-2.89-4.1c-0.19-0.86-0.23-1.76-0.06-2.63c0.15-0.87,0.58-1.72,1.36-2.26c-0.92,0.31-1.55,1.21-1.91,2.11
		c-0.32,0.93-0.42,1.95-0.28,2.93c0.23,1.98,1.41,3.88,3.18,4.94C158.95,278.57,161.07,278.76,162.96,278.42z"/>
	<path class="st0" d="M244.57,212.45c1.49-1.82,2.2-4.12,1.99-6.47c-0.11-1.24-0.48-2.44-1.1-3.57l-0.24-0.43l-0.47,0.17
		c-0.41,0.15-0.8,0.22-1.13,0.21c-0.85-0.01-1.64-0.34-2.24-0.95c-0.6-0.61-0.92-1.41-0.92-2.26c0-0.11,0.02-0.22,0.04-0.32
		l0.08-0.51l-0.5-0.14c-0.96-0.27-1.96-0.36-2.97-0.27c-2.32,0.2-4.42,1.32-5.91,3.14c-1.49,1.82-2.2,4.12-1.99,6.48
		c0.41,4.62,4.23,8.12,8.7,8.12c0.25,0,0.5-0.01,0.75-0.03C240.98,215.38,243.08,214.27,244.57,212.45z M238.56,214.43
		c-4.14,0.36-7.82-2.79-8.19-7.03c-0.18-2.06,0.43-4.06,1.73-5.64c1.29-1.58,3.11-2.54,5.12-2.72c0.21-0.02,0.42-0.03,0.63-0.03
		c0.5,0,0.99,0.05,1.47,0.15c0,1.15,0.44,2.23,1.25,3.05c0.81,0.83,1.9,1.29,3.05,1.3c0.36,0.01,0.69-0.03,1.06-0.13
		c0.42,0.86,0.67,1.77,0.75,2.69c0.18,2.06-0.43,4.06-1.73,5.64C242.38,213.29,240.57,214.26,238.56,214.43z"/>
</g>
</svg>
