<?xml version="1.0" encoding="utf-8"?>
<!-- Generator: Adobe Illustrator 24.3.0, SVG Export Plug-In . SVG Version: 6.00 Build 0)  -->
<svg version="1.1" id="colors" xmlns="http://www.w3.org/2000/svg" xmlns:xlink="http://www.w3.org/1999/xlink" x="0px" y="0px"
	 viewBox="0 0 408 512" style="enable-background:new 0 0 408 512;" xml:space="preserve">
<style type="text/css">
	.st0{fill:url(#SVGID_1_);}
	.st1{fill:url(#SVGID_2_);}
	.st2{fill:url(#SVGID_3_);}
	.st3{fill:url(#SVGID_4_);}
	.st4{fill:url(#SVGID_5_);}
	.st5{fill:url(#SVGID_6_);}
	.st6{fill:url(#SVGID_7_);}
	.st7{fill:url(#SVGID_8_);}
	.st8{fill:url(#SVGID_9_);}
	.st9{fill:url(#SVGID_10_);}
	.st10{fill:url(#SVGID_11_);}
	.st11{fill:#1E121B;}
	.st12{fill:url(#SVGID_12_);}
	.st13{fill:url(#SVGID_13_);}
	.st14{fill:url(#SVGID_14_);}
	.st15{fill:#CC8168;}
	.st16{fill:url(#SVGID_15_);}
	.st17{fill:#FFECE3;}
	.st18{fill:url(#SVGID_16_);}
	.st19{fill:url(#SVGID_17_);}
	.st20{opacity:0.75;fill:#FFFFFF;}
	.st21{fill:url(#SVGID_18_);}
	.st22{opacity:0.5;fill:#FFFFFF;}
	.st23{fill:url(#SVGID_19_);}
	.st24{fill:url(#SVGID_20_);}
	.st25{fill:url(#SVGID_21_);}
	.st26{fill:url(#SVGID_22_);}
	.st27{fill:url(#SVGID_23_);}
	.st28{fill:url(#SVGID_24_);}
	.st29{fill:#924C36;}
	.st30{fill:url(#SVGID_25_);}
	.st31{fill:url(#SVGID_26_);}
	.st32{fill:url(#SVGID_27_);}
	.st33{fill:url(#SVGID_28_);}
	.st34{fill:url(#SVGID_29_);}
	.st35{fill:url(#SVGID_30_);}
	.st36{fill:#FFD3B9;}
	.st37{fill:#AF664C;}
	.st38{fill:url(#SVGID_31_);}
	.st39{fill:#773C32;}
	.st40{fill:url(#SVGID_32_);}
	.st41{fill:url(#SVGID_33_);}
	.st42{fill:url(#SVGID_34_);}
	.st43{fill:#853D11;}
	.st44{fill:#FF7F8F;}
	.st45{fill:url(#SVGID_35_);}
	.st46{fill:url(#SVGID_36_);}
	.st47{fill:url(#SVGID_37_);}
	.st48{fill:url(#SVGID_38_);}
	.st49{fill:url(#SVGID_39_);}
	.st50{fill:url(#SVGID_40_);}
	.st51{fill:url(#SVGID_41_);}
	.st52{fill:url(#SVGID_42_);}
	.st53{fill:url(#SVGID_43_);}
	.st54{fill:url(#SVGID_44_);}
	.st55{fill:url(#SVGID_45_);}
	.st56{fill:url(#SVGID_46_);}
	.st57{fill:url(#SVGID_47_);}
	.st58{fill:url(#SVGID_48_);}
	.st59{fill:url(#SVGID_49_);}
	.st60{fill:url(#SVGID_50_);}
	.st61{fill:url(#SVGID_51_);}
	.st62{fill:url(#SVGID_52_);}
	.st63{fill:#E39090;}
	.st64{fill:url(#SVGID_53_);}
	.st65{clip-path:url(#SVGID_55_);}
	.st66{fill:url(#SVGID_56_);}
	.st67{fill:url(#SVGID_57_);}
	.st68{opacity:0.25;}
	.st69{fill:#08AFF7;}
	.st70{fill:#FFFFFF;}
	.st71{fill:#D9B28D;}
	.st72{fill:url(#SVGID_58_);}
	.st73{fill:url(#SVGID_59_);}
	.st74{fill:#4D204C;}
	.st75{fill:#D8B386;}
	.st76{fill:url(#SVGID_60_);}
	.st77{fill:#2B1628;}
	.st78{fill:url(#SVGID_61_);}
	.st79{fill:url(#SVGID_62_);}
	.st80{fill:url(#SVGID_63_);}
	.st81{fill:#9E5545;}
	.st82{fill:url(#SVGID_64_);}
	.st83{fill:url(#SVGID_65_);}
	.st84{fill:url(#SVGID_66_);}
	.st85{fill:url(#SVGID_67_);}
	.st86{fill:url(#SVGID_68_);}
	.st87{fill:url(#SVGID_69_);}
	.st88{fill:url(#SVGID_70_);}
</style>
<g id="hair">
	<linearGradient id="SVGID_1_" gradientUnits="userSpaceOnUse" x1="371.5131" y1="183.9118" x2="289.8703" y2="6.5219">
		<stop  offset="0" style="stop-color:#FF5673"/>
		<stop  offset="1" style="stop-color:#FF7C8B"/>
	</linearGradient>
	<path class="st0" d="M236.43,83.38c-23.62-46.16,10.83-82.74,49.76-74.5c-6.4,7.73-3.87,22.67-7.71,26.79
		c5.73,10.03,60.74-64.14,118.26,9.87c-44.18-16.83-27.56,18.14-63.15,28.26c23.07,2.03,80.16,30.68,70.88,100.6
		C376.13,170.15,266.74,127.48,236.43,83.38z"/>
	
		<linearGradient id="SVGID_2_" gradientUnits="userSpaceOnUse" x1="30.2377" y1="129.1965" x2="173.8855" y2="129.1965" gradientTransform="matrix(-1 0 0 1 393.0363 0)">
		<stop  offset="0" style="stop-color:#E63D5A"/>
		<stop  offset="1" style="stop-color:#E66372"/>
	</linearGradient>
	<path class="st1" d="M348.61,185.98c51.13-64.78-46.13-142.69-129.46-102.6C257.62,108.01,335.85,108.8,348.61,185.98z"/>
	
		<radialGradient id="SVGID_3_" cx="50.6742" cy="-0.4836" r="107.7262" gradientTransform="matrix(-1 0 0 1 393.0363 0)" gradientUnits="userSpaceOnUse">
		<stop  offset="0" style="stop-color:#FFB9C0"/>
		<stop  offset="0.3247" style="stop-color:#FF8C9E"/>
		<stop  offset="0.9399" style="stop-color:#FF5673"/>
	</radialGradient>
	<path class="st2" d="M348.61,2.4c-57.57-8.17-84.41,16.88-76.34,71.41C289.63,25.95,306.61,6.4,348.61,2.4z"/>
	
		<linearGradient id="SVGID_4_" gradientUnits="userSpaceOnUse" x1="246.8876" y1="309.4242" x2="134.2922" y2="64.7817" gradientTransform="matrix(-1 0 0 1 393.0363 0)">
		<stop  offset="0" style="stop-color:#FFB4B2"/>
		<stop  offset="1" style="stop-color:#FF9DA9"/>
	</linearGradient>
	<path class="st3" d="M65.5,196.46c0,79.27,65.19,134.25,147.92,134.25s125.95-94.02,125.95-173.29S298.05,52.94,215.31,52.94
		S65.5,117.19,65.5,196.46z"/>
	
		<linearGradient id="SVGID_5_" gradientUnits="userSpaceOnUse" x1="255.0683" y1="309.2022" x2="138.3868" y2="55.6818" gradientTransform="matrix(-1 0 0 1 393.0363 0)">
		<stop  offset="0" style="stop-color:#B72436"/>
		<stop  offset="0.3743" style="stop-color:#FF5673"/>
		<stop  offset="1" style="stop-color:#FF7C8B"/>
	</linearGradient>
	<path class="st4" d="M59.71,197.62c0,79.27,65.19,134.25,147.92,134.25s125.95-94.02,125.95-173.29S288.81,35.7,206.09,37.42
		C103.46,39.54,59.71,118.35,59.71,197.62z"/>
	
		<linearGradient id="SVGID_6_" gradientUnits="userSpaceOnUse" x1="195.1027" y1="94.5859" x2="172.3243" y2="45.0939" gradientTransform="matrix(-1 0 0 1 393.0363 0)">
		<stop  offset="0" style="stop-color:#E63D5A"/>
		<stop  offset="1" style="stop-color:#E66372"/>
	</linearGradient>
	<path class="st5" d="M226.78,44.95c-36.36,9.14,5.65,45.73-11.22,59.33C221.82,75.84,155.81,43.59,226.78,44.95z"/>
</g>
<g id="shirt">
	<g>
		
			<linearGradient id="SVGID_7_" gradientUnits="userSpaceOnUse" x1="266.099" y1="350.0915" x2="299.345" y2="433.5931" gradientTransform="matrix(1 0 0 1 -98.5738 0)">
			<stop  offset="0" style="stop-color:#6F2A60"/>
			<stop  offset="1" style="stop-color:#281529"/>
		</linearGradient>
		<path class="st6" d="M261.35,390.63c-30.23-28.78-96.6-51.66-125.07-27.44c-3.53,3.01-6.21,7-8.19,11.7
			c-15.27,29.01-12.82,103.42,32.53,129.94c21.05,12.31,33.62-6.05,28.98-23c-0.38-1.4-0.91-3.38-1.54-5.81
			c35.75,1.3,79.07,5.8,94.62,19.36C290.43,458.3,288.43,416.4,261.35,390.63z"/>
		
			<linearGradient id="SVGID_8_" gradientUnits="userSpaceOnUse" x1="225.3118" y1="426.6608" x2="389.6169" y2="426.6608" gradientTransform="matrix(1 0 0 1 -98.5738 0)">
			<stop  offset="0" style="stop-color:#1E121B"/>
			<stop  offset="1" style="stop-color:#101017"/>
		</linearGradient>
		<path class="st7" d="M267.1,390.39c28.47,24.22,26.81,70.23,19.06,107.31c-28.19-24.6-147.77-19.37-147.77-19.37
			s-27.09-88.61,1.38-112.83C168.23,341.29,238.63,366.17,267.1,390.39z"/>
		<linearGradient id="SVGID_9_" gradientUnits="userSpaceOnUse" x1="158.5104" y1="373.1786" x2="252.792" y2="508.4187">
			<stop  offset="0" style="stop-color:#6F2A60"/>
			<stop  offset="1" style="stop-color:#281529"/>
		</linearGradient>
		<path class="st8" d="M261.35,390.63c33.18,25.27,26.92,85,21.66,104.4c-39.61-21.83-144.94-16.69-144.94-16.69
			s-26.39-88.61,1.34-112.83C167.16,341.29,232.06,368.32,261.35,390.63z"/>
		
			<linearGradient id="SVGID_10_" gradientUnits="userSpaceOnUse" x1="256.3132" y1="496.7191" x2="281.236" y2="369.2071" gradientTransform="matrix(1 0 0 1 -90.6996 0)">
			<stop  offset="0" style="stop-color:#1E121B"/>
			<stop  offset="1" style="stop-color:#1E121B;stop-opacity:0"/>
		</linearGradient>
		<path class="st9" d="M164.37,393.31c-7.9,19.93-24.05,62.45-24.28,84.94c7.03-0.27,31.61-1.03,59.35,0.43
			C186.91,444.64,171.83,405.46,164.37,393.31z"/>
		
			<linearGradient id="SVGID_11_" gradientUnits="userSpaceOnUse" x1="387.5331" y1="479.3919" x2="357.6318" y2="409.1586" gradientTransform="matrix(1 0 0 1 -98.5738 0)">
			<stop  offset="0" style="stop-color:#1E121B"/>
			<stop  offset="1" style="stop-color:#1E121B;stop-opacity:0"/>
		</linearGradient>
		<path class="st10" d="M256.21,408.4c4.64,9.27,35.68,56.08,26.8,86.63C289.05,487.92,292.73,411.3,256.21,408.4z"/>
		<path class="st11" d="M217.01,375.83c15.3,11.77,9.57-5.46,47.2,19.14c-34.96,30.14-81.25-24.19-94.31-36.87
			C185.58,359.17,203.48,365.42,217.01,375.83z"/>
		
			<linearGradient id="SVGID_12_" gradientUnits="userSpaceOnUse" x1="315.6248" y1="388.7943" x2="315.6248" y2="315.5984" gradientTransform="matrix(1 0 0 1 -98.5738 0)">
			<stop  offset="0" style="stop-color:#CC8570"/>
			<stop  offset="1" style="stop-color:#914425"/>
		</linearGradient>
		<path class="st12" d="M242.3,319.92c-1.38,19.26-15.72,50.46,21.91,75.06c-43.41,18.81-73.89-25.05-94.31-36.87
			c15.69,1.07,29.03-0.49,26.27-28.24C193.73,305.35,243.75,299.66,242.3,319.92z"/>
	</g>
	<g>
		
			<linearGradient id="SVGID_13_" gradientUnits="userSpaceOnUse" x1="227.9417" y1="381.8868" x2="280.0797" y2="520.5171" gradientTransform="matrix(1 0 0 1 -98.5738 0)">
			<stop  offset="0" style="stop-color:#2B1628"/>
			<stop  offset="1" style="stop-color:#101017"/>
		</linearGradient>
		<path class="st13" d="M146.71,365.54c-29.61-4.42-41.73,107.72,16.23,141.61c21.05,12.31,33.62-6.05,28.98-23
			C187.29,467.21,162.94,367.96,146.71,365.54z"/>
		<linearGradient id="SVGID_14_" gradientUnits="userSpaceOnUse" x1="125.4966" y1="436.3903" x2="186.2177" y2="436.3903">
			<stop  offset="0" style="stop-color:#6F2A60"/>
			<stop  offset="1" style="stop-color:#281529"/>
		</linearGradient>
		<path class="st14" d="M145.21,364.8c-25.48,0.09-32.75,95.47,18.17,138.31c16.91,14.23,26.01-5.73,21.83-21.02
			c-2.63-9.61-8.59-53.42-19.4-84.75C159.42,378.85,152.29,364.77,145.21,364.8z"/>
		<path class="st15" d="M142.61,367.25c-21.61,13.74-19.47,57.26,0.38,64.21C171.71,407.86,164.52,372.28,142.61,367.25z"/>
		
			<radialGradient id="SVGID_15_" cx="237.5802" cy="371.0736" r="61.3714" gradientTransform="matrix(1 0 0 1 -98.5738 0)" gradientUnits="userSpaceOnUse">
			<stop  offset="0" style="stop-color:#E6B89A"/>
			<stop  offset="1" style="stop-color:#CC8168"/>
		</radialGradient>
		<path class="st16" d="M142.61,367.25c-22.6,11.59-20.29,57.38,0.38,64.21C164.06,414.78,160.83,379.14,142.61,367.25z"/>
	</g>
</g>
<g id="head">
	<g>
		<g>
			<path class="st17" d="M282.84,298.97c-21.42,32.13-90.36,52.22-104.49,50.33c-16.1-2.15-45.23-12.06-68.78-31.86
				c-38.34-32.25-27.39-65.3-16.8-108.04c4.07-16.44,0.74-33.04,5.42-53.48c7.53-32.91,59.11-55.7,108.81-53.82
				c4.01,0.15,8.73,12.71,11.87,15.63c6.32-0.53,14.86-1.14,19.65,0c20.09,4.79,36.66,0.21,46.42,18.04
				c5.93,10.84,9.23,29.15,10.55,49.75c-4.2,4.66-12.88,12.63-12.9,20.6c-0.02,8.75,8.4,22.89,12.69,28.99
				C293.39,264.33,288.66,290.23,282.84,298.97z"/>
			<radialGradient id="SVGID_16_" cx="193.3452" cy="212.1127" r="157.289" gradientUnits="userSpaceOnUse">
				<stop  offset="0" style="stop-color:#FFD3B9"/>
				<stop  offset="0.3505" style="stop-color:#FBCEB3"/>
				<stop  offset="0.7977" style="stop-color:#EEC0A4"/>
				<stop  offset="1" style="stop-color:#E6B89A"/>
			</radialGradient>
			<path class="st18" d="M282.84,298.97c-21.16,31.56-89.1,47.86-103.06,46c-15.91-2.11-44.68-11.84-67.94-31.31
				c-37.87-31.69-27.06-64.16-16.6-106.15c4.02-16.16,0.73-32.46,5.35-52.54c7.44-32.33,58.39-54.73,107.48-52.88
				c3.96,0.15,8.62,12.49,11.72,15.35c6.24-0.52,14.68-1.12,19.41,0c19.85,4.7,36.21,0.2,45.85,17.72
				c5.86,10.65,9.12,28.64,10.42,48.88c-4.15,4.58-12.72,12.41-12.74,20.24c-0.02,8.6,8.3,22.49,12.54,28.49
				C293.42,261.49,288.59,290.39,282.84,298.97z"/>
			
				<radialGradient id="SVGID_17_" cx="378.8577" cy="312.0754" r="50.7221" gradientTransform="matrix(0.887 -0.4617 0.4169 0.8009 -216.802 169.651)" gradientUnits="userSpaceOnUse">
				<stop  offset="0" style="stop-color:#F39E95"/>
				<stop  offset="1" style="stop-color:#F39E95;stop-opacity:0"/>
			</radialGradient>
			<path class="st19" d="M295.25,220.79c11.87,22.8,1.18,51.86-23.87,64.9c-25.05,13.04-54.99,5.12-66.86-17.68
				c-11.87-22.8-1.18-51.86,23.87-64.9S283.38,197.98,295.25,220.79z"/>
			
				<ellipse transform="matrix(0.7686 -0.6397 0.6397 0.7686 -94.6762 221.6586)" class="st20" cx="259.06" cy="241.7" rx="4.33" ry="2.48"/>
			
				<radialGradient id="SVGID_18_" cx="204.3365" cy="262.5169" r="24.9169" gradientTransform="matrix(0.8796 -0.4757 0.7715 1.4265 -276.4931 -14.7517)" gradientUnits="userSpaceOnUse">
				<stop  offset="0" style="stop-color:#F39E95"/>
				<stop  offset="1" style="stop-color:#F39E95;stop-opacity:0"/>
			</radialGradient>
			<path class="st21" d="M88.8,225.53c-0.02,0.01-0.04,0.02-0.07,0.03c-4.35,17.84-7.51,34.02-5.2,49.29
				c9.83,18.88,27.5,29.18,40.14,23.09c13.03-6.27,15.78-27.57,6.15-47.57C120.19,230.39,101.83,219.26,88.8,225.53z"/>
			
				<ellipse transform="matrix(0.6565 -0.7543 0.7543 0.6565 -153.1962 178.3513)" class="st22" cx="119.23" cy="257.38" rx="2.48" ry="4.33"/>
		</g>
		<g>
			<radialGradient id="SVGID_19_" cx="323.1756" cy="195.1111" r="88.0619" gradientUnits="userSpaceOnUse">
				<stop  offset="0" style="stop-color:#FFD3B9"/>
				<stop  offset="0.3505" style="stop-color:#FBCEB3"/>
				<stop  offset="0.7977" style="stop-color:#EEC0A4"/>
				<stop  offset="1" style="stop-color:#E6B89A"/>
			</radialGradient>
			<path class="st23" d="M338.43,216.72c1.43,19.99-14.21,52.76-31.82,44.34c-3.73-1.78-8.17-7.82-7.5-15.83
				c1.15-13.91-0.87-22.02-0.12-34.95c0.62-10.62,3.94-19.46,7.37-22.75C319.38,175.03,336.65,191.84,338.43,216.72z"/>
			<radialGradient id="SVGID_20_" cx="314.0374" cy="253.6374" r="4.6071" gradientUnits="userSpaceOnUse">
				<stop  offset="0" style="stop-color:#6F2A60"/>
				<stop  offset="1" style="stop-color:#281529"/>
			</radialGradient>
			<circle class="st24" cx="314.04" cy="253.64" r="4.61"/>
			<radialGradient id="SVGID_21_" cx="322.8346" cy="245.5347" r="3.8342" gradientUnits="userSpaceOnUse">
				<stop  offset="0" style="stop-color:#6F2A60"/>
				<stop  offset="1" style="stop-color:#281529"/>
			</radialGradient>
			<circle class="st25" cx="322.83" cy="245.53" r="3.83"/>
			<g>
				<radialGradient id="SVGID_22_" cx="319.9408" cy="217.6514" r="20.5659" gradientUnits="userSpaceOnUse">
					<stop  offset="0" style="stop-color:#E6B89A"/>
					<stop  offset="1" style="stop-color:#CC8168"/>
				</radialGradient>
				<path class="st26" d="M315.16,191.74c-2.33,8.24-6.52,18.47-7.68,23.31c-1.16,4.84,10.21,3.66,1.47,20.54
					c0.54,7.57,4.28,14.81,16.47-1.71C341.09,212.65,327.58,188.28,315.16,191.74z"/>
				<g>
					
						<linearGradient id="SVGID_23_" gradientUnits="userSpaceOnUse" x1="452.5956" y1="224.5961" x2="466.5526" y2="231.9623" gradientTransform="matrix(0.9963 -0.0859 0.0859 0.9963 -160.9346 19.3424)">
						<stop  offset="0" style="stop-color:#924C36"/>
						<stop  offset="1" style="stop-color:#924C36;stop-opacity:0"/>
					</linearGradient>
					<path class="st27" d="M314.04,198.61c8.25,2.39,11.1,9.8,8.45,14.32c-2.65,4.52-13.67,0.97-13.04-5.8
						C310.08,200.36,311.77,197.95,314.04,198.61z"/>
					
						<linearGradient id="SVGID_24_" gradientUnits="userSpaceOnUse" x1="461.5453" y1="237.7225" x2="472.2095" y2="243.3509" gradientTransform="matrix(0.9963 -0.0859 0.0859 0.9963 -160.9346 19.3424)">
						<stop  offset="0" style="stop-color:#924C36"/>
						<stop  offset="1" style="stop-color:#924C36;stop-opacity:0"/>
					</linearGradient>
					<path class="st28" d="M329.9,210.11c0.18,4.83-4.19,13.43-14.36,15.45C322,230.13,334.5,227.09,329.9,210.11z"/>
				</g>
				<g>
					<path class="st29" d="M307.48,215.05c2.28-10.33,2.53-19.31,10.61-27.42C315.63,194.27,310.07,209.07,307.48,215.05z"/>
					<path class="st29" d="M314.04,193.06c2.94-4.96,14.5-2.45,17.93,14.51C328.87,200.94,323.94,192.03,314.04,193.06z"/>
				</g>
			</g>
		</g>
		<g>
			<g>
				<radialGradient id="SVGID_25_" cx="169.7228" cy="249.106" r="24.4552" gradientUnits="userSpaceOnUse">
					<stop  offset="0" style="stop-color:#E6B89A"/>
					<stop  offset="1" style="stop-color:#CC8168"/>
				</radialGradient>
				<path class="st30" d="M174.09,319.86c7.46,10.95,19.72,6.35,21.81-5.23C190.16,320.61,178.72,321.67,174.09,319.86z"/>
				<g>
					<radialGradient id="SVGID_26_" cx="169.7228" cy="249.106" r="24.4552" gradientUnits="userSpaceOnUse">
						<stop  offset="0" style="stop-color:#E6B89A"/>
						<stop  offset="1" style="stop-color:#CC8168"/>
					</radialGradient>
					<path class="st31" d="M211.08,293.75c-1.3-9.62,4.27-11.52,9.17-8.91c4.9,2.61,4.28,10.89,0,9.74
						C215.96,293.43,211.08,293.75,211.08,293.75z"/>
					<radialGradient id="SVGID_27_" cx="187.1032" cy="300.2647" r="21.3421" gradientUnits="userSpaceOnUse">
						<stop  offset="0" style="stop-color:#6F2A60"/>
						<stop  offset="1" style="stop-color:#281529"/>
					</radialGradient>
					<path class="st32" d="M182.65,308.81c-9.73,0.84-19.9-0.12-24.41-3.85l2.59-3.13c3.44,2.85,14.46,7.18,27.51,4.77
						c11.56-2.13,20.84-9.41,24.09-15.17l3.53,2c-5.27,9.33-18.62,13.04-26.12,14.42C187.54,308.28,185.11,308.6,182.65,308.81z"/>
					<linearGradient id="SVGID_28_" gradientUnits="userSpaceOnUse" x1="206.7181" y1="294.584" x2="218.1177" y2="294.584">
						<stop  offset="0" style="stop-color:#6F2A60"/>
						<stop  offset="1" style="stop-color:#281529"/>
					</linearGradient>
					<path class="st33" d="M206.72,301.62c4.83-6.4,6.2-11.3,1.3-12.67C220.52,284.63,222.87,290.67,206.72,301.62z"/>
					<linearGradient id="SVGID_29_" gradientUnits="userSpaceOnUse" x1="156.952" y1="301.9733" x2="169.0118" y2="301.9733">
						<stop  offset="0" style="stop-color:#6F2A60"/>
						<stop  offset="1" style="stop-color:#281529"/>
					</linearGradient>
					<path class="st34" d="M169.01,306.41c-6.76-1.39-9.92-5.81-7.91-9.51C153.45,301.54,156.54,309.34,169.01,306.41z"/>
					<radialGradient id="SVGID_30_" cx="180.6575" cy="305.1578" r="50.0706" gradientUnits="userSpaceOnUse">
						<stop  offset="0" style="stop-color:#F39E95"/>
						<stop  offset="1" style="stop-color:#F39E95;stop-opacity:0"/>
					</radialGradient>
					<path class="st35" d="M162.29,300.26c22.12-7.79,34.45,5.52,48.79-7.79c1.64,5.17-23.98,23.35-49.13,10.56
						C159.48,301.78,161.27,300.62,162.29,300.26z"/>
					<path class="st36" d="M167.74,296.9c0,0,6.46,7.22,9.67,6.65c2.37-0.42,5.3-6.65,5.3-6.65l-9.9-5.67L167.74,296.9z"/>
				</g>
			</g>
			<circle class="st37" cx="145.99" cy="299.11" r="2.22"/>
			<radialGradient id="SVGID_31_" cx="169.7228" cy="249.106" r="24.4552" gradientUnits="userSpaceOnUse">
				<stop  offset="0" style="stop-color:#E6B89A"/>
				<stop  offset="1" style="stop-color:#CC8168"/>
			</radialGradient>
			<path class="st38" d="M156.81,264.63c4.29,3.8,10.61,7.49,17.63,7.86C166.99,280.71,151.78,278.25,156.81,264.63z"/>
			<path class="st39" d="M156.19,267.53c-4.05,1.96-2.02,15.08,12.1,8.88C162.73,276.74,158.57,275.1,156.19,267.53z"/>
			<g>
				<linearGradient id="SVGID_32_" gradientUnits="userSpaceOnUse" x1="179.6263" y1="161.5963" x2="235.6277" y2="161.5963">
					<stop  offset="0" style="stop-color:#6F2A60"/>
					<stop  offset="1" style="stop-color:#281529"/>
				</linearGradient>
				<path class="st40" d="M186.37,160.71c9.39-4.47,24.38-11.61,49.26-6.43c-27.82,10.34-49.94,15.91-56,16.44
					C181.46,166.82,183.82,162.47,186.37,160.71z"/>
			</g>
			<g>
				
					<linearGradient id="SVGID_33_" gradientUnits="userSpaceOnUse" x1="202.9063" y1="197.2264" x2="217.6634" y2="240.0694" gradientTransform="matrix(1 0 0 1 -98.5738 0)">
					<stop  offset="0" style="stop-color:#FF7C8B"/>
					<stop  offset="1" style="stop-color:#FF7C8B;stop-opacity:0"/>
				</linearGradient>
				<path class="st41" d="M86.84,229.85c-4.92-48.71,53.02-30.1,58.27,3.98c-10.46-28.39-36.15-26.52-46.95-3.32
					C94.21,231.5,90.52,231.7,86.84,229.85z"/>
				<g>
					<radialGradient id="SVGID_34_" cx="169.7228" cy="249.106" r="24.4552" gradientUnits="userSpaceOnUse">
						<stop  offset="0" style="stop-color:#E6B89A"/>
						<stop  offset="1" style="stop-color:#CC8168"/>
					</radialGradient>
					<path class="st42" d="M137.21,205.43c-3.35-5.92-5.2-9.62-15.34-8.14C125.19,201.09,134.59,202.5,137.21,205.43z"/>
				</g>
				<path class="st43" d="M133.17,176.97c-6.65-2.14-17.27-5.55-30.11,6.04c18.89,3.39,33.17,3.4,36.8,2.38
					C137.71,181.91,135.13,178.1,133.17,176.97z"/>
			</g>
		</g>
	</g>
	<g>
		<g>
			<path class="st44" d="M218.86,117.73c2.55-9.34,13.57-17.53,17.39-17.85c3.01-0.26,34.92,10.77,31.98,16.73
				C253.33,107.31,226.82,113.96,218.86,117.73z"/>
			
				<linearGradient id="SVGID_35_" gradientUnits="userSpaceOnUse" x1="2.9771" y1="322.5735" x2="-5.5006" y2="196.8216" gradientTransform="matrix(-1 0 0 1 294.9132 0)">
				<stop  offset="0" style="stop-color:#FF5673"/>
				<stop  offset="1" style="stop-color:#FF9DA9"/>
			</linearGradient>
			<path class="st45" d="M305.56,174.41c-16.56,14.65-42.16,48.67-25.92,86.94s15.14,52.39-11.22,72.86
				c31.05-4.4,68.65-46.66,39.71-95.17C303.07,230.55,289.95,204.61,305.56,174.41z"/>
			<g>
				
					<linearGradient id="SVGID_36_" gradientUnits="userSpaceOnUse" x1="364.6761" y1="97.7226" x2="389.3863" y2="195.5747" gradientTransform="matrix(1 0 0 1 -98.5738 0)">
					<stop  offset="0" style="stop-color:#FFB4BB"/>
					<stop  offset="1" style="stop-color:#FFB4BB;stop-opacity:0"/>
				</linearGradient>
				<path class="st46" d="M246.71,99.27c10.67,1.72,17.45,2.79,25.38-0.28c19.42,7.74,33.13,35.55,10.82,92.02
					C278.94,135.47,264.56,109.18,246.71,99.27z"/>
				
					<linearGradient id="SVGID_37_" gradientUnits="userSpaceOnUse" x1="364.4068" y1="98.998" x2="380.5542" y2="162.9419" gradientTransform="matrix(1 0 0 1 -98.5738 0)">
					<stop  offset="0" style="stop-color:#FFC1BF;stop-opacity:0"/>
					<stop  offset="0.5108" style="stop-color:#FFC1BF"/>
					<stop  offset="1" style="stop-color:#FFC1BF;stop-opacity:0"/>
				</linearGradient>
				<path class="st47" d="M252.17,100.26c2.98,0,13.89-0.99,15.87-0.99c8.93,8.43,23.8,20.33,21.32,57.53
					c-3.47-1.49-8.93,0-11.41,0.5C277.46,130.01,266.55,109.68,252.17,100.26z"/>
			</g>
		</g>
		<g>
			<linearGradient id="SVGID_38_" gradientUnits="userSpaceOnUse" x1="141.5598" y1="94.3411" x2="219.1509" y2="94.3411">
				<stop  offset="0" style="stop-color:#B72436"/>
				<stop  offset="0.3743" style="stop-color:#FF5673"/>
				<stop  offset="1" style="stop-color:#FF7C8B"/>
			</linearGradient>
			<path class="st48" d="M209.65,79.47c14.07,13.42,7.99,34.06,9.21,38.26c-31.48-49.31-73.27-7.19-77.06-11.17
				S179.04,51.04,209.65,79.47z"/>
			<linearGradient id="SVGID_39_" gradientUnits="userSpaceOnUse" x1="56.5787" y1="148.0495" x2="391.2011" y2="372.1615">
				<stop  offset="0" style="stop-color:#FFB4B2"/>
				<stop  offset="1" style="stop-color:#FF9DA9"/>
			</linearGradient>
			<path class="st49" d="M203.85,75.99c-80.11-8.51-34.19,101.16-94.21,128.88c-17.94,8.28-26.71,17.22-28.76,25.08
				C54.25,279.5,66.15,300.11,104.6,328c-85.25-6.81-117.19-66.78-94.39-116.52c10.84-23.64,22.67-27.09,20.09-46.36
				C23.56,114.7,52.8,71.37,95.47,58.16C140.49,44.22,166.11,49.29,203.85,75.99z"/>
			
				<radialGradient id="SVGID_40_" cx="243.727" cy="64.2263" r="268.9176" gradientTransform="matrix(1 0 0 1 -90.6996 0)" gradientUnits="userSpaceOnUse">
				<stop  offset="0" style="stop-color:#FFB9C0"/>
				<stop  offset="0.3247" style="stop-color:#FF8C9E"/>
				<stop  offset="0.9399" style="stop-color:#FF5673"/>
			</radialGradient>
			<path class="st50" d="M209.65,79.47c-80.11-8.51-34.19,101.16-94.21,128.88c-17.94,8.28-26.71,17.22-28.76,25.08
				c-26.64,49.55-14.74,70.16,23.7,98.05C25.14,324.66-6.8,264.69,16,214.96c10.84-23.64,22.67-27.09,20.09-46.36
				c-6.74-50.42,22.5-93.75,65.17-106.96C146.29,47.7,171.91,52.76,209.65,79.47z"/>
			<g>
				
					<linearGradient id="SVGID_41_" gradientUnits="userSpaceOnUse" x1="223.8191" y1="74.3914" x2="157.0231" y2="243.4689" gradientTransform="matrix(1 0 0 1 -98.5738 0)">
					<stop  offset="0" style="stop-color:#FFB4BB"/>
					<stop  offset="1" style="stop-color:#FFB4BB;stop-opacity:0"/>
				</linearGradient>
				<path class="st51" d="M103.7,81.03c1.15,13.24,25.85,5.69,76.66-7.22c-38.29,15.92-18.83,73.46-42.61,108.41
					c-23.83,35.03-42.53,15.01-77.8,61.13C35.32,201.35,19.86,101.51,103.7,81.03z"/>
				<g>
					
						<linearGradient id="SVGID_42_" gradientUnits="userSpaceOnUse" x1="138.7206" y1="163.7298" x2="203.4351" y2="75.1325" gradientTransform="matrix(0.9959 -0.0902 0.0902 0.9959 -109.7064 19.1745)">
						<stop  offset="0" style="stop-color:#FFC1BF;stop-opacity:0"/>
						<stop  offset="0.5108" style="stop-color:#FFC1BF"/>
						<stop  offset="1" style="stop-color:#FFC1BF;stop-opacity:0"/>
					</linearGradient>
					<path class="st52" d="M99.37,75.84c3.5,13.41,22.22,9.81,22.22,9.81c-32.96,19.01-54.84,40.55-62.32,103.25
						c-6.91-2.71-9.37-7.81-11.53-9.62C32.45,111.6,64.49,80.76,99.37,75.84z"/>
					
						<linearGradient id="SVGID_43_" gradientUnits="userSpaceOnUse" x1="174.686" y1="182.6454" x2="230.5649" y2="85.0108" gradientTransform="matrix(0.9959 -0.0902 0.0902 0.9959 -109.7064 19.1745)">
						<stop  offset="0" style="stop-color:#FFC1BF;stop-opacity:0"/>
						<stop  offset="0.5108" style="stop-color:#FFC1BF"/>
						<stop  offset="1" style="stop-color:#FFC1BF;stop-opacity:0"/>
					</linearGradient>
					<path class="st53" d="M128.71,85.71c-6.14,7.99-54.77,35.19-56.77,97.86c9.59,4.85,23.77,3.57,25.53,3.98
						c9.55-14.59,46.35-99.2,47.9-101.06C137.53,88.35,132.37,88.24,128.71,85.71z"/>
					
						<linearGradient id="SVGID_44_" gradientUnits="userSpaceOnUse" x1="209.4615" y1="185.2229" x2="263.3653" y2="94.0523" gradientTransform="matrix(0.9959 -0.0902 0.0902 0.9959 -109.7064 19.1745)">
						<stop  offset="0" style="stop-color:#FFC1BF;stop-opacity:0"/>
						<stop  offset="0.5108" style="stop-color:#FFC1BF"/>
						<stop  offset="1" style="stop-color:#FFC1BF;stop-opacity:0"/>
					</linearGradient>
					<path class="st54" d="M164.19,84.64c-34.4,28.73-2.85,86.36-49.39,104.78c-2.47-2.06-3.71-3.1-6.7-4.54
						c9.8-11.76,38.7-87.99,41.08-101.01C153.1,82.93,158.36,83.45,164.19,84.64z"/>
				</g>
			</g>
		</g>
		
			<linearGradient id="SVGID_45_" gradientUnits="userSpaceOnUse" x1="141.2215" y1="154.157" x2="495.118" y2="154.157" gradientTransform="matrix(1 0 0 1 -96.1809 0)">
			<stop  offset="0" style="stop-color:#FF8998"/>
			<stop  offset="1" style="stop-color:#FFAAB6"/>
		</linearGradient>
		<path class="st55" d="M212.41,123.45c5.01,28.06,50.09,103.44,136.63,84.62c-57.56-20.11-36.5-70.91-68.54-96.86
			S214.86,99.11,212.41,123.45z"/>
		<g>
			
				<linearGradient id="SVGID_46_" gradientUnits="userSpaceOnUse" x1="349.4252" y1="106.9194" x2="408.158" y2="201.201" gradientTransform="matrix(1 0 0 1 -96.1809 0)">
				<stop  offset="0" style="stop-color:#FFB4BB"/>
				<stop  offset="1" style="stop-color:#FFB4BB;stop-opacity:0"/>
			</linearGradient>
			<path class="st56" d="M217.47,113.89c12.17-1.16,51.58-10.72,60.57-31.59c48,37.38,27.55,81.43,59.99,122.6
				C296.3,208.07,230.51,174.95,217.47,113.89z"/>
			
				<linearGradient id="SVGID_47_" gradientUnits="userSpaceOnUse" x1="365.8318" y1="194.7067" x2="326.8396" y2="116.1315" gradientTransform="matrix(0.9901 -0.1403 0.1403 0.9901 -115.2035 33.4958)">
				<stop  offset="0" style="stop-color:#FFC1BF;stop-opacity:0"/>
				<stop  offset="0.5108" style="stop-color:#FFC1BF"/>
				<stop  offset="1" style="stop-color:#FFC1BF;stop-opacity:0"/>
			</linearGradient>
			<path class="st57" d="M220.48,107.72c7.09-0.48,12.18-1.67,16.48-3.44c2.47,5.53,14.58,45.49,56.13,74.04
				c-12.72,9.08-11.36,5.7-16.53,5.14C263.05,173.01,237.99,160.64,220.48,107.72z"/>
			
				<linearGradient id="SVGID_48_" gradientUnits="userSpaceOnUse" x1="404.6139" y1="180.4019" x2="347.8131" y2="92.3027" gradientTransform="matrix(1 0 0 1 -96.1809 0)">
				<stop  offset="0" style="stop-color:#FFC1BF;stop-opacity:0"/>
				<stop  offset="0.5108" style="stop-color:#FFC1BF"/>
				<stop  offset="1" style="stop-color:#FFC1BF;stop-opacity:0"/>
			</linearGradient>
			<path class="st58" d="M245.72,97.26c7.54-2.5,14.87-8.3,15.69-14.96c19.2,28.88,32.31,58.97,52.35,94.14
				C289.85,167.32,255.84,139.01,245.72,97.26z"/>
		</g>
	</g>
	<g>
		<g>
			<linearGradient id="SVGID_49_" gradientUnits="userSpaceOnUse" x1="92.4647" y1="221.1672" x2="145.9904" y2="221.1672">
				<stop  offset="0" style="stop-color:#6F2A60"/>
				<stop  offset="1" style="stop-color:#281529"/>
			</linearGradient>
			<path class="st59" d="M145.99,236.85c-4.77-42.76-53.14-38.86-53.53-6.06c2.69,2.57,8.72,3.88,8.72,3.88
				C103.04,217.72,134.08,204.08,145.99,236.85z"/>
			<linearGradient id="SVGID_50_" gradientUnits="userSpaceOnUse" x1="86.6893" y1="239.0426" x2="101.2663" y2="239.0426">
				<stop  offset="0" style="stop-color:#6F2A60"/>
				<stop  offset="1" style="stop-color:#281529"/>
			</linearGradient>
			<path class="st60" d="M101.18,235.48c-0.53,4.13-0.25,6.07,0.09,8.92c-4.21,1.22-11.36-1.59-14.58-10.97
				C92.8,234.95,97.1,236.03,101.18,235.48z"/>
		</g>
		<g>
			<g>
				<radialGradient id="SVGID_51_" cx="210.0503" cy="172.4902" r="48.6685" gradientUnits="userSpaceOnUse">
					<stop  offset="0" style="stop-color:#F39E95"/>
					<stop  offset="1" style="stop-color:#F39E95;stop-opacity:0"/>
				</radialGradient>
				<path class="st61" d="M186.72,214.04c-14.16-54.2,72.7-48.89,87.33-23.15C253.18,193.21,201.2,221.34,186.72,214.04z"/>
				<radialGradient id="SVGID_52_" cx="169.7228" cy="249.106" r="24.4552" gradientUnits="userSpaceOnUse">
					<stop  offset="0" style="stop-color:#E6B89A"/>
					<stop  offset="1" style="stop-color:#CC8168"/>
				</radialGradient>
				<path class="st62" d="M189.5,187.99c1.98-6.28,2.98-10.15,13.64-11.52C200.69,180.81,191.46,184.62,189.5,187.99z"/>
			</g>
			<path class="st63" d="M200.72,229.54c-0.04,5.47-4.6,16.39,14.34,13.05C210.34,240.31,202.67,234.53,200.72,229.54z"/>
			
				<radialGradient id="SVGID_53_" cx="374.1292" cy="211.5109" r="36.3786" fx="345.0235" fy="210.935" gradientTransform="matrix(0.6911 -0.7228 0.6219 0.5946 -158.6093 354.9679)" gradientUnits="userSpaceOnUse">
				<stop  offset="0" style="stop-color:#FFFFFF"/>
				<stop  offset="0.3339" style="stop-color:#FDFDFC"/>
				<stop  offset="0.5826" style="stop-color:#F8F5F3"/>
				<stop  offset="0.7634" style="stop-color:#F0EBE6"/>
				<stop  offset="0.8233" style="stop-color:#E0D5CC"/>
				<stop  offset="0.9411" style="stop-color:#C3AE9C"/>
				<stop  offset="1" style="stop-color:#B89F8A"/>
			</radialGradient>
			<path class="st64" d="M263.76,207.57c-7.75,23.33-35.48,39.5-51.34,34.08c-10.75-3.67-17.15-20.84-12.59-38.51
				s21.4-28.6,37.64-24.42S268.43,193.52,263.76,207.57z"/>
			<g>
				<defs>
					<path id="SVGID_54_" d="M263.76,207.57c-7.75,23.33-35.48,39.5-51.34,34.08c-10.75-3.67-17.15-20.84-12.59-38.51
						s21.4-28.6,37.64-24.42S268.43,193.52,263.76,207.57z"/>
				</defs>
				<clipPath id="SVGID_55_">
					<use xlink:href="#SVGID_54_"  style="overflow:visible;"/>
				</clipPath>
				<g class="st65">
					
						<radialGradient id="SVGID_56_" cx="383.3346" cy="218.4301" r="36.9684" gradientTransform="matrix(1 7.390464e-03 -7.390464e-03 1 -141.0835 -3.9552)" gradientUnits="userSpaceOnUse">
						<stop  offset="0" style="stop-color:#085FB7"/>
						<stop  offset="0.2204" style="stop-color:#084576"/>
						<stop  offset="1" style="stop-color:#08265E"/>
					</radialGradient>
					<path class="st66" d="M263.64,204.91c1.31,14.96-8.88,28.07-22.75,29.29c-13.88,1.22-26.19-9.92-27.51-24.88
						c-1.31-14.96,8.88-28.07,22.75-29.29C250.02,178.81,262.33,189.95,263.64,204.91z"/>
					
						<radialGradient id="SVGID_57_" cx="383.1019" cy="217.3479" r="33.0368" gradientTransform="matrix(1 7.390464e-03 -7.390464e-03 1 -141.0835 -3.9552)" gradientUnits="userSpaceOnUse">
						<stop  offset="0" style="stop-color:#089FF7"/>
						<stop  offset="0.2204" style="stop-color:#087CB6"/>
						<stop  offset="1" style="stop-color:#08569E"/>
					</radialGradient>
					<path class="st67" d="M260.97,205.14c1.17,13.37-7.93,25.09-20.33,26.17c-12.4,1.09-23.41-8.87-24.58-22.23
						c-1.17-13.37,7.93-25.09,20.33-26.17S259.8,191.77,260.97,205.14z"/>
					<g class="st68">
						<path class="st69" d="M260.55,205.18c0.11,1.25-7.86,2.49-7.97,3.69c-0.11,1.25,7.51,3.87,7.19,5.04
							c-0.33,1.2-8.22-0.44-8.75,0.65c-0.54,1.12,5.61,6.32,4.88,7.3c-0.74,0.99-7.45-3.47-8.36-2.65c-0.92,0.82,2.74,8,1.68,8.61
							c-1.06,0.61-5.39-6.17-6.58-5.8c-1.16,0.37-0.81,8.41-2.07,8.52c-1.25,0.11-2.32-7.87-3.52-8.03
							c-1.23-0.16-4.32,7.27-5.47,6.85c-1.16-0.42,1.2-8.12,0.15-8.77c-1.04-0.65-6.87,4.91-7.77,4.06
							c-0.89-0.84,4.27-7.03,3.54-8.04c-0.72-0.99-8.2,2.01-8.73,0.88c-0.52-1.1,6.53-5.01,6.2-6.22c-0.31-1.17-8.38-1-8.49-2.25
							c-0.11-1.25,7.86-2.49,7.97-3.69c0.11-1.25-7.51-3.87-7.19-5.04c0.33-1.2,8.22,0.44,8.75-0.65c0.54-1.12-5.61-6.32-4.88-7.3
							c0.74-0.99,7.45,3.47,8.36,2.65c0.92-0.82-2.74-8-1.68-8.61c1.06-0.61,5.39,6.17,6.58,5.8c1.16-0.37,0.81-8.41,2.07-8.52
							c1.25-0.11,2.32,7.87,3.52,8.03c1.23,0.16,4.32-7.27,5.47-6.85c1.16,0.42-1.2,8.12-0.15,8.77c1.04,0.65,6.87-4.91,7.77-4.06
							c0.89,0.84-4.27,7.03-3.54,8.04c0.72,0.99,8.2-2.01,8.73-0.88c0.52,1.1-6.53,5.01-6.2,6.22
							C252.38,204.1,260.44,203.92,260.55,205.18z"/>
					</g>
					
						<ellipse transform="matrix(0.9962 -0.0874 0.0874 0.9962 -17.1577 21.5788)" class="st69" cx="237.88" cy="206.76" rx="10.26" ry="10.48"/>
					<ellipse transform="matrix(0.9962 -0.0874 0.0874 0.9962 -17.1577 21.5788)" cx="237.88" cy="206.76" rx="8.13" ry="8.3"/>
					<circle class="st70" cx="243.64" cy="199.18" r="3.76"/>
				</g>
			</g>
			<path class="st71" d="M211.79,184.03c-4.79,0.31-25.81,18.29-10.95,45.96C196.66,215.93,199.36,197.29,211.79,184.03z"/>
			<g>
				<linearGradient id="SVGID_58_" gradientUnits="userSpaceOnUse" x1="195.3317" y1="193.5153" x2="277.5216" y2="193.5153">
					<stop  offset="0" style="stop-color:#6F2A60"/>
					<stop  offset="1" style="stop-color:#281529"/>
				</linearGradient>
				<path class="st72" d="M195.33,212.46c-0.39-46.81,65.83-46.93,82.19-18.45c-4.81,2.91-14.77,5.78-14.77,5.78
					C252.39,180.62,204.35,179.62,195.33,212.46z"/>
				<linearGradient id="SVGID_59_" gradientUnits="userSpaceOnUse" x1="262.7501" y1="203.3494" x2="277.5607" y2="203.3494">
					<stop  offset="0" style="stop-color:#6F2A60"/>
					<stop  offset="1" style="stop-color:#281529"/>
				</linearGradient>
				<path class="st73" d="M262.75,199.79c0.72,4.1,0.64,6.52,0.44,9.38c4.26,1.02,11.6-2.3,14.37-11.83
					C271.53,199.16,266.85,200.15,262.75,199.79z"/>
			</g>
		</g>
	</g>
</g>
<g id="arm">
	<g>
		<g>
			<path d="M356.65,332.13l2.8-3.49c1.31-0.96,4.02,1.4,3.49,3.23l-3.62,2.67L356.65,332.13z"/>
			<path class="st74" d="M282.06,402.6l63.51-66.88l11.17-3.85l2.59,2.67l-3.57,10.19l-63.8,67.75
				C285.96,417.14,277.52,407.54,282.06,402.6z"/>
			<path class="st75" d="M345.57,335.71l5.72-0.01l-1.92,5.48l4.8-2.6l-2.19,6.31l4.11-3.84l-0.34,3.68c0,0,2.6-6.94,3.57-10.19
				c0.78-2.6-0.61-3.23-2.59-2.67C353.57,332.78,345.57,335.71,345.57,335.71z"/>
		</g>
		
			<radialGradient id="SVGID_60_" cx="-1.3629" cy="348.2794" r="43.5183" gradientTransform="matrix(-1 0 0 1 294.9132 0)" gradientUnits="userSpaceOnUse">
			<stop  offset="0" style="stop-color:#E6B89A"/>
			<stop  offset="1" style="stop-color:#CC8168"/>
		</radialGradient>
		<path class="st76" d="M284.2,354.64c1.16-1.74,19.99-18.48,22.89-17.9s17.11,6.89,18.84,8.05s13.91,2.9,14.49,4.64
			c0.58,1.74-2.46,7.78-11.16,7.2c-8.69-0.58-20.96-7.94-20.96-7.94c-0.58,2.32-5.19,11.84-7.51,11.84L284.2,354.64z"/>
		<path class="st77" d="M185.5,505.4c-17.36,9.24-32.94-9.66-18.88-34.99c3.51-6.33,14.37-15.3,23.75-19.55L185.5,505.4z"/>
		
			<radialGradient id="SVGID_61_" cx="386.9675" cy="357.0685" r="189.4315" gradientTransform="matrix(0.8901 -0.4557 0.3419 0.6678 -178.1287 294.9703)" gradientUnits="userSpaceOnUse">
			<stop  offset="0" style="stop-color:#E6B89A"/>
			<stop  offset="0.5071" style="stop-color:#E5B698"/>
			<stop  offset="0.6898" style="stop-color:#E2AF92"/>
			<stop  offset="0.82" style="stop-color:#DCA487"/>
			<stop  offset="0.9245" style="stop-color:#D49378"/>
			<stop  offset="1" style="stop-color:#CC8168"/>
		</radialGradient>
		<path class="st78" d="M291.16,443.9c-21.24,7.35-64.83,56.53-103.34,61.5c-15.58,2.01-31.86-11.82-17.8-37.16
			c3.51-6.33,13.39-14.5,22.77-18.75c29.62-13.41,67.2-20.63,68.52-24.15c1.74-4.64,9.37-52.72,9.88-55.63
			c1.22-7.05,11.86-13.34,13.02-15.07l16.6,5.88c3.77,6.25,4.86,12.34,3.12,14.07c2.32,2.32,7.64,7.12,8.68,11.93
			C315.85,401.48,312.87,436.39,291.16,443.9z"/>
		
			<radialGradient id="SVGID_62_" cx="-43.082" cy="367.0021" r="76.7159" gradientTransform="matrix(-1 0 0 1 294.9132 0)" gradientUnits="userSpaceOnUse">
			<stop  offset="0" style="stop-color:#E6B89A"/>
			<stop  offset="1" style="stop-color:#CC8168"/>
		</radialGradient>
		<path class="st79" d="M312.6,386.52c5.44-3.66,7.62-0.62,12.4-4.75c0-4.06,2.5-16.36,8.91-19.56c3.48-1.74,7.98,1.27,6.16,7.17
			c-1.25,4.03-0.94,14.13-3.12,19.56c-1.31,3.27-13.35,16.71-15.09,21.34c-1.74,4.64-19.29,33.62-30.72,33.62
			C323.3,425.34,285.1,405.03,312.6,386.52z"/>
		
			<radialGradient id="SVGID_63_" cx="387.1645" cy="385.9149" r="60.4357" gradientTransform="matrix(1 0 0 1 -90.6996 0)" gradientUnits="userSpaceOnUse">
			<stop  offset="0" style="stop-color:#9E5545"/>
			<stop  offset="1" style="stop-color:#9E5545;stop-opacity:0"/>
		</radialGradient>
		<path class="st80" d="M281.94,371.06c2.26,10.02,4.46,11.23-1.17,18.76c8.44,2.99,43.78,33.8,10.38,54.07
			c17.65-5.98,34.47-34.58,33.85-62.13C324.38,354.21,278.07,353.9,281.94,371.06z"/>
		<path class="st81" d="M306.3,417.58c-3.45-4.69-5.12-16.66,3.57-21.13C306.68,399.6,303.59,408.4,306.3,417.58z"/>
		<linearGradient id="SVGID_64_" gradientUnits="userSpaceOnUse" x1="295.6469" y1="425.0985" x2="308.1077" y2="425.0985">
			<stop  offset="0" style="stop-color:#CC8570"/>
			<stop  offset="1" style="stop-color:#914425"/>
		</linearGradient>
		<path class="st82" d="M301.17,409.23c2.22,4.06,9.57,20.88-5.53,31.73C302.09,437.9,316.77,426.33,301.17,409.23z"/>
		<linearGradient id="SVGID_65_" gradientUnits="userSpaceOnUse" x1="331.979" y1="386.6385" x2="322.7711" y2="390.209">
			<stop  offset="0" style="stop-color:#CC8570"/>
			<stop  offset="1" style="stop-color:#914425"/>
		</linearGradient>
		<path class="st83" d="M325.01,381.76c-2.27,7.51-0.23,14.33,1.21,14.69C325.93,389.56,324.87,383.77,325.01,381.76z"/>
	</g>
	<g>
		<linearGradient id="SVGID_66_" gradientUnits="userSpaceOnUse" x1="280.7736" y1="383.3627" x2="339.2134" y2="383.3627">
			<stop  offset="0" style="stop-color:#2B1628"/>
			<stop  offset="1" style="stop-color:#101017"/>
		</linearGradient>
		<path class="st84" d="M282.06,402.6l44.08-46.43c1.07,0.22,2.12,0.38,3.12,0.45c5.11,0.34,8.25-1.6,9.87-3.62
			c0.37,2.36-0.5,5.35-4.13,8.82c-0.37,0.08-0.73,0.2-1.09,0.37c-1.47,0.73-2.72,1.96-3.8,3.44h0c0,0,0,0,0,0
			c-0.85,1.18-1.59,2.52-2.21,3.93c0,0,0,0.01-0.01,0.01c-0.2,0.46-0.39,0.92-0.57,1.39c-0.01,0.02-0.02,0.04-0.02,0.06
			c-0.17,0.46-0.34,0.91-0.49,1.37c-0.01,0.03-0.02,0.06-0.03,0.1c-0.15,0.45-0.29,0.9-0.42,1.34c-0.01,0.04-0.02,0.07-0.03,0.11
			c-0.13,0.45-0.25,0.89-0.35,1.33c-0.01,0.03-0.01,0.05-0.02,0.08c-0.11,0.45-0.21,0.9-0.3,1.33l-33.7,35.79
			C285.96,417.14,277.52,407.54,282.06,402.6z"/>
		<path d="M296.59,407.54c-1.16,1.23-4.64,4.94-4.64,4.94c-6,4.66-14.43-4.94-9.89-9.88c0,0,3.45-3.58,4.57-4.81
			C291.15,392.81,300.87,402.99,296.59,407.54z"/>
	</g>
	<g>
		<path class="st81" d="M332.45,358.76c-1.54,1.59-4.72,2.66-9.89,1.54c-2.05-0.45-15.79-2.79-18.76-5.4
			c-0.72,3.51-14.09,9.44-18.51,8.08c-4.42-1.36-5.06-9.08,1.75-12.98c9.87-5.66,17.59-9.14,18.58-8.84
			c2.03,0.62,23.8,10.92,26.77,12.8c0.72,0.46,1.13,1.2,1.19,2.03l-2.27,0.26L332.45,358.76"/>
		
			<radialGradient id="SVGID_67_" cx="386.6382" cy="350.1043" r="44.6728" gradientTransform="matrix(1 0 0 1 -98.5738 0)" gradientUnits="userSpaceOnUse">
			<stop  offset="0" style="stop-color:#E6B89A"/>
			<stop  offset="1" style="stop-color:#CC8168"/>
		</radialGradient>
		<path class="st85" d="M286.05,351.22c10-5.42,17.8-8.72,18.79-8.39c2.01,0.67,23.53,11.48,26.46,13.43s0.45,8.63-9.97,6.11
			c-2.04-0.49-15.72-3.17-18.63-5.84c-0.81,3.49-14.32,9.1-18.7,7.64S279.16,354.95,286.05,351.22z"/>
		<path class="st81" d="M325.11,367.12c-1.6,1.67-4.99,2.73-10.52,1.17c-6.97-1.97-10.84-3.42-16.98-7.96
			c-2.24,1.98-12.82,9.47-17.25,8.17s-6.91-10.37,0.44-13.12c13.4-5,17.3-4,20.21-4.59c2.91-0.59,21.07,9.79,24.06,11.63l-5.58-0.46
			l4.96,4.87L325.11,367.12"/>
		
			<radialGradient id="SVGID_68_" cx="382.2065" cy="358.2105" r="41.2927" gradientTransform="matrix(1 0 0 1 -98.5738 0)" gradientUnits="userSpaceOnUse">
			<stop  offset="0" style="stop-color:#E6B89A"/>
			<stop  offset="1" style="stop-color:#CC8168"/>
		</radialGradient>
		<path class="st86" d="M279.91,356.15c13.57-4.53,17.43-3.4,20.36-3.88c2.92-0.49,20.72,10.51,23.64,12.46
			c2.92,1.95,0.11,8.96-10.68,5.5c-6.9-2.21-10.72-3.8-16.69-8.55c-2.31,1.9-13.14,9.02-17.53,7.56S272.46,358.64,279.91,356.15z"/>
		<linearGradient id="SVGID_69_" gradientUnits="userSpaceOnUse" x1="275.726" y1="372.3752" x2="293.0144" y2="387.2206">
			<stop  offset="0" style="stop-color:#CC8570"/>
			<stop  offset="1" style="stop-color:#914425"/>
		</linearGradient>
		<path class="st87" d="M294.77,373.7c-0.97,7.69-9.61,15.95-16.3,16.06C293.5,390.75,294.56,379.2,294.77,373.7z"/>
		<path class="st81" d="M315.83,377.34c-1.23,1.47-3.41,2.25-6.41,0.9c-6.61-2.98-11.69-8.1-15.58-10.41
			c-1.72,1.34-13.2,5.16-17.46,3.35c-4.25-1.81-6.61-5.99,0.13-10.02c5.78-3.45,18.35-5.17,20.14-4.49
			c1.15,0.44,12.41,9.5,17.36,13.47l-4.58-1.19L315.83,377.34"/>
		
			<radialGradient id="SVGID_70_" cx="372.4252" cy="383.6077" r="41.8677" gradientTransform="matrix(0.9902 -0.1397 0.1397 0.9902 -146.1234 35.9924)" gradientUnits="userSpaceOnUse">
			<stop  offset="0.1265" style="stop-color:#E6B89A"/>
			<stop  offset="1" style="stop-color:#CC8168"/>
		</radialGradient>
		<path class="st88" d="M276.53,360.76c6.01-3.04,18.51-2.91,20.25-2.11c1.31,0.6,15.72,12.96,18.32,15.33s-0.54,8.79-6.92,5.36
			c-6.38-3.43-12.23-6.55-15.95-9.12c-1.81,1.22-13,6.1-17.11,3.99C271,372.11,269.53,364.3,276.53,360.76z"/>
	</g>
</g>
</svg>
